/* XPM */
static char * deathstar_xpm[] = {
"32 32 661 2",
"  	c None",
". 	c #C1C6D6",
"+ 	c #BFC5D7",
"@ 	c #C0C3D4",
"# 	c #A9ADB9",
"$ 	c #888791",
"% 	c #89878B",
"& 	c #9799B2",
"* 	c #A5A7C3",
"= 	c #ABAFCD",
"- 	c #AEB0CF",
"; 	c #AFB2CF",
"> 	c #B2B5D0",
", 	c #B7BBD2",
"' 	c #A5A8B5",
") 	c #9B9BA6",
"! 	c #8F8D95",
"~ 	c #77747F",
"{ 	c #646269",
"] 	c #838288",
"^ 	c #8788A4",
"/ 	c #8F8FB0",
"( 	c #989AB9",
"_ 	c #979BB9",
": 	c #9C9DBD",
"< 	c #A0A2BF",
"[ 	c #A7A8C2",
"} 	c #9B9DB5",
"| 	c #7F7E8B",
"1 	c #504E54",
"2 	c #524B51",
"3 	c #565557",
"4 	c #5B585C",
"5 	c #8F919D",
"6 	c #72717B",
"7 	c #3F3D3F",
"8 	c #666373",
"9 	c #77768F",
"0 	c #7B7E9B",
"a 	c #8386A5",
"b 	c #8889AC",
"c 	c #9093B5",
"d 	c #8B8DB0",
"e 	c #A0A1BE",
"f 	c #9395B6",
"g 	c #999CBA",
"h 	c #8E8DA5",
"i 	c #858492",
"j 	c #474649",
"k 	c #77747E",
"l 	c #B5B7CF",
"m 	c #AFB2C4",
"n 	c #352F33",
"o 	c #393334",
"p 	c #504B53",
"q 	c #696678",
"r 	c #6C6B80",
"s 	c #71718B",
"t 	c #7A7A95",
"u 	c #8282A1",
"v 	c #8B8BAB",
"w 	c #999AB8",
"x 	c #9B9CBB",
"y 	c #9EA2BC",
"z 	c #9898AF",
"A 	c #9C9CAE",
"B 	c #9F9EAE",
"C 	c #919198",
"D 	c #B9BACE",
"E 	c #A7A8B4",
"F 	c #393536",
"G 	c #3A3536",
"H 	c #3B3436",
"I 	c #474044",
"J 	c #544D56",
"K 	c #605968",
"L 	c #625F71",
"M 	c #595768",
"N 	c #5E5B6F",
"O 	c #736F8A",
"P 	c #8D8DAE",
"Q 	c #9999BB",
"R 	c #A2A2C3",
"S 	c #AEB0CD",
"T 	c #B5B7CE",
"U 	c #B7B9CB",
"V 	c #68676B",
"W 	c #6B6C75",
"X 	c #A8AAB6",
"Y 	c #B8BAC7",
"Z 	c #8C8D94",
"` 	c #373334",
" .	c #3E3B3B",
"..	c #464040",
"+.	c #423A3A",
"@.	c #463E40",
"#.	c #474043",
"$.	c #3F3A3E",
"%.	c #373232",
"&.	c #353032",
"*.	c #362E2F",
"=.	c #342E30",
"-.	c #4A4857",
";.	c #898AAC",
">.	c #9898BB",
",.	c #A9ACC8",
"'.	c #AFB0C8",
").	c #A9A7B8",
"!.	c #A9AABC",
"~.	c #92929B",
"{.	c #57555A",
"].	c #4C4A4F",
"^.	c #535157",
"/.	c #575657",
"(.	c #3E3A39",
"_.	c #484141",
":.	c #483F3F",
"<.	c #463F3E",
"[.	c #453E41",
"}.	c #3D3637",
"|.	c #373133",
"1.	c #373131",
"2.	c #383131",
"3.	c #30292B",
"4.	c #362C2D",
"5.	c #352B2C",
"6.	c #5A586B",
"7.	c #8F90B4",
"8.	c #9E9EBF",
"9.	c #9C9DB8",
"0.	c #9291A4",
"a.	c #807F8C",
"b.	c #747480",
"c.	c #A09FAD",
"d.	c #95949C",
"e.	c #6D6B71",
"f.	c #686769",
"g.	c #535150",
"h.	c #3C3636",
"i.	c #413A39",
"j.	c #4A4142",
"k.	c #48403F",
"l.	c #484040",
"m.	c #4C474D",
"n.	c #352F30",
"o.	c #332C30",
"p.	c #312B2C",
"q.	c #322B29",
"r.	c #31292B",
"s.	c #352C2A",
"t.	c #342B2C",
"u.	c #7D7C9D",
"v.	c #8885A6",
"w.	c #9C9BBA",
"x.	c #ADADCA",
"y.	c #B3B3D1",
"z.	c #AFB1C6",
"A.	c #A2A1AF",
"B.	c #94929D",
"C.	c #75747D",
"D.	c #67656C",
"E.	c #575758",
"F.	c #3E3937",
"G.	c #423B39",
"H.	c #473E3D",
"I.	c #4A4340",
"J.	c #524D52",
"K.	c #49444A",
"L.	c #362E2E",
"M.	c #342D2E",
"N.	c #322A2A",
"O.	c #342A28",
"P.	c #362E2D",
"Q.	c #332A29",
"R.	c #37302D",
"S.	c #3A332F",
"T.	c #706D8C",
"U.	c #807C9D",
"V.	c #8783A2",
"W.	c #9B98B9",
"X.	c #B0B1CA",
"Y.	c #C1C2D0",
"Z.	c #AEAEB7",
"`.	c #5C5862",
" +	c #544F57",
".+	c #646063",
"++	c #36302D",
"@+	c #37322E",
"#+	c #47423F",
"$+	c #4E4846",
"%+	c #484240",
"&+	c #64606B",
"*+	c #4C484D",
"=+	c #38302F",
"-+	c #362F2B",
";+	c #312A28",
">+	c #38302D",
",+	c #362E2A",
"'+	c #38312C",
")+	c #372E2C",
"!+	c #69657E",
"~+	c #787396",
"{+	c #827BA2",
"]+	c #948EB4",
"^+	c #9490AF",
"/+	c #878290",
"(+	c #7B7887",
"_+	c #6B6978",
":+	c #73737D",
"<+	c #616169",
"[+	c #717176",
"}+	c #3A3433",
"|+	c #38332F",
"1+	c #433E3B",
"2+	c #453E3C",
"3+	c #443F3C",
"4+	c #605D67",
"5+	c #5C5868",
"6+	c #463C3D",
"7+	c #474040",
"8+	c #332E2B",
"9+	c #362D2B",
"0+	c #38312D",
"a+	c #443E45",
"b+	c #65617C",
"c+	c #767194",
"d+	c #756F92",
"e+	c #817A9F",
"f+	c #8D88A7",
"g+	c #7D7C94",
"h+	c #AAA9C4",
"i+	c #A8AABF",
"j+	c #C4C5D7",
"k+	c #9492A1",
"l+	c #3E3B40",
"m+	c #6B6A6E",
"n+	c #79777D",
"o+	c #363431",
"p+	c #3A3632",
"q+	c #3F3A36",
"r+	c #47403F",
"s+	c #433C3A",
"t+	c #46403D",
"u+	c #494445",
"v+	c #757389",
"w+	c #534E54",
"x+	c #3D3736",
"y+	c #38312E",
"z+	c #352D2B",
"A+	c #352F2C",
"B+	c #332B2A",
"C+	c #423A38",
"D+	c #565060",
"E+	c #5D5870",
"F+	c #6D6986",
"G+	c #75708F",
"H+	c #7F799D",
"I+	c #8D88AD",
"J+	c #8F8CA6",
"K+	c #777387",
"L+	c #848090",
"M+	c #888594",
"N+	c #8B8691",
"O+	c #5D5A5F",
"P+	c #615F66",
"Q+	c #8A8894",
"R+	c #353330",
"S+	c #3B3533",
"T+	c #423C3A",
"U+	c #443E3D",
"V+	c #4B4442",
"W+	c #4A4342",
"X+	c #625E6D",
"Y+	c #787790",
"Z+	c #5C5865",
"`+	c #4D464A",
" @	c #3E3639",
".@	c #3F373A",
"+@	c #454042",
"@@	c #494046",
"#@	c #514956",
"$@	c #544C5E",
"%@	c #645F7A",
"&@	c #706B88",
"*@	c #756E90",
"=@	c #7F7B98",
"-@	c #827E97",
";@	c #89869C",
">@	c #716B7D",
",@	c #868291",
"'@	c #696371",
")@	c #605B68",
"!@	c #67626C",
"~@	c #8D8B95",
"{@	c #AEACB3",
"]@	c #3D3936",
"^@	c #3D3935",
"/@	c #433D3B",
"(@	c #494141",
"_@	c #4D4444",
":@	c #534A4B",
"<@	c #494140",
"[@	c #433C3D",
"}@	c #4E4951",
"|@	c #676477",
"1@	c #69667B",
"2@	c #605C6D",
"3@	c #57505A",
"4@	c #42393E",
"5@	c #3A3233",
"6@	c #40393C",
"7@	c #4C444F",
"8@	c #5B536A",
"9@	c #696581",
"0@	c #726D8C",
"a@	c #797295",
"b@	c #8A85A8",
"c@	c #9593B6",
"d@	c #8C8BA6",
"e@	c #9A98B5",
"f@	c #787786",
"g@	c #797380",
"h@	c #75707C",
"i@	c #9C9BA9",
"j@	c #918F9E",
"k@	c #94939C",
"l@	c #8E8D9B",
"m@	c #423D3C",
"n@	c #494340",
"o@	c #4D4644",
"p@	c #4E4646",
"q@	c #534C51",
"r@	c #473F3F",
"s@	c #484143",
"t@	c #403A3A",
"u@	c #3F393B",
"v@	c #3F383C",
"w@	c #393436",
"x@	c #40383D",
"y@	c #393236",
"z@	c #352E30",
"A@	c #373035",
"B@	c #3B353A",
"C@	c #4D4656",
"D@	c #625B77",
"E@	c #6B6482",
"F@	c #797293",
"G@	c #8984A6",
"H@	c #9A95BB",
"I@	c #9390B0",
"J@	c #B2B1CD",
"K@	c #B3B1CF",
"L@	c #8C879F",
"M@	c #858097",
"N@	c #ADAFCC",
"O@	c #B2B3CD",
"P@	c #AAABC2",
"Q@	c #C3C7DE",
"R@	c #484344",
"S@	c #4D494C",
"T@	c #4F4B4C",
"U@	c #4E4A4D",
"V@	c #524D4F",
"W@	c #4B464A",
"X@	c #4F484C",
"Y@	c #4E484D",
"Z@	c #4C474C",
"`@	c #4F484F",
" #	c #49454A",
".#	c #4B434A",
"+#	c #443E43",
"@#	c #483F46",
"##	c #403A41",
"$#	c #3C363D",
"%#	c #514854",
"&#	c #605668",
"*#	c #68607D",
"=#	c #767191",
"-#	c #8A86A8",
";#	c #8782A0",
">#	c #A6A3C4",
",#	c #B7B7D2",
"'#	c #B4B3CF",
")#	c #A7A5C1",
"!#	c #AFAECB",
"~#	c #C0C1DB",
"{#	c #B8BDD6",
"]#	c #C7C8DE",
"^#	c #C3C5D7",
"/#	c #3C3739",
"(#	c #484244",
"_#	c #4D494D",
":#	c #484346",
"<#	c #484447",
"[#	c #504B50",
"}#	c #50484C",
"|#	c #544D54",
"1#	c #524B52",
"2#	c #4F4850",
"3#	c #443D43",
"4#	c #48444A",
"5#	c #4D464B",
"6#	c #4C454C",
"7#	c #49424A",
"8#	c #433B42",
"9#	c #49414A",
"0#	c #504958",
"a#	c #635C76",
"b#	c #746C8B",
"c#	c #797395",
"d#	c #8D89AC",
"e#	c #9A98BA",
"f#	c #A3A2C3",
"g#	c #AFADCF",
"h#	c #ABAACD",
"i#	c #A0A0BE",
"j#	c #A6A5C5",
"k#	c #908DAC",
"l#	c #9A99B0",
"m#	c #423C40",
"n#	c #4C4346",
"o#	c #494446",
"p#	c #4D454A",
"q#	c #494247",
"r#	c #453C41",
"s#	c #524950",
"t#	c #4B4249",
"u#	c #464145",
"v#	c #423B40",
"w#	c #453D46",
"x#	c #3D353D",
"y#	c #473E47",
"z#	c #4E4351",
"A#	c #595066",
"B#	c #6E6787",
"C#	c #6D6689",
"D#	c #7C759B",
"E#	c #7B749A",
"F#	c #8584AA",
"G#	c #8A89AD",
"H#	c #7F7A9B",
"I#	c #645F76",
"J#	c #777290",
"K#	c #8D8DA9",
"L#	c #6A6877",
"M#	c #59565B",
"N#	c #383134",
"O#	c #423C3E",
"P#	c #4C474B",
"Q#	c #4F484D",
"R#	c #484044",
"S#	c #4C464A",
"T#	c #4F474E",
"U#	c #524C54",
"V#	c #474045",
"W#	c #463F45",
"X#	c #464147",
"Y#	c #474046",
"Z#	c #463E46",
"`#	c #4D4550",
" $	c #312B31",
".$	c #38313B",
"+$	c #362F38",
"@$	c #463E4F",
"#$	c #655C79",
"$$	c #615B7A",
"%$	c #6F678B",
"&$	c #857FA3",
"*$	c #7D799A",
"=$	c #4A454D",
"-$	c #47444A",
";$	c #5E5A63",
">$	c #342E32",
",$	c #474145",
"'$	c #544D55",
")$	c #564E57",
"!$	c #504950",
"~$	c #504850",
"{$	c #59525B",
"]$	c #4F474F",
"^$	c #524951",
"/$	c #463D43",
"($	c #3E363A",
"_$	c #474048",
":$	c #423944",
"<$	c #3F3746",
"[$	c #272025",
"}$	c #2D2830",
"|$	c #575062",
"1$	c #3D3743",
"2$	c #4C4351",
"3$	c #4E4956",
"4$	c #625F6F",
"5$	c #4B464C",
"6$	c #423C43",
"7$	c #54515B",
"8$	c #363136",
"9$	c #2A252A",
"0$	c #494346",
"a$	c #585158",
"b$	c #534952",
"c$	c #59525D",
"d$	c #4A434B",
"e$	c #514A52",
"f$	c #4A454B",
"g$	c #49434A",
"h$	c #3C343B",
"i$	c #3F3942",
"j$	c #423A44",
"k$	c #231B22",
"l$	c #342C34",
"m$	c #282027",
"n$	c #221A20",
"o$	c #241D23",
"p$	c #372E3A",
"q$	c #2D252B",
"r$	c #251F23",
"s$	c #474149",
"t$	c #4D4A50",
"u$	c #322E33",
"v$	c #413B41",
"w$	c #534D56",
"x$	c #504952",
"y$	c #443D44",
"z$	c #3F393F",
"A$	c #3D363C",
"B$	c #4E454F",
"C$	c #413841",
"D$	c #373036",
"E$	c #443B45",
"F$	c #1A1017",
"G$	c #1C1419",
"H$	c #1F191D",
"I$	c #211A21",
"J$	c #282126",
"K$	c #2E292F",
"L$	c #353036",
"M$	c #554F5B",
"N$	c #46424D",
"O$	c #3B3740",
"P$	c #514855",
"Q$	c #403B42",
"R$	c #484148",
"S$	c #463F43",
"T$	c #3F383D",
"U$	c #463D45",
"V$	c #514954",
"W$	c #4A434C",
"X$	c #3D353E",
"Y$	c #1C1318",
"Z$	c #1F181F",
"`$	c #1D151B",
" %	c #22191F",
".%	c #39333B",
"+%	c #37353E",
"@%	c #080809",
"#%	c #0C0C0E",
"$%	c #2B292F",
"%%	c #534C5B",
"&%	c #443D45",
"*%	c #322B2E",
"=%	c #3F373B",
"-%	c #423B42",
";%	c #2D272D",
">%	c #2F292F",
",%	c #2C252A",
"'%	c #1E171E",
")%	c #180F13",
"!%	c #221B1E",
"~%	c #292025",
"{%	c #3D343D",
"]%	c #3F3A43",
"^%	c #4F4A57",
"/%	c #504B56",
"(%	c #443C43",
"_%	c #544B54",
":%	c #453D44",
"<%	c #423941",
"[%	c #48444C",
"}%	c #322D31",
"|%	c #322C32",
"1%	c #3D363F",
"2%	c #39313C",
"3%	c #342D35",
"4%	c #2F2930",
"5%	c #302A2E",
"6%	c #3A353D",
"7%	c #4E4952",
"8%	c #554E5C",
"9%	c #3D3739",
"0%	c #423C3F",
"a%	c #423B41",
"b%	c #524B56",
"c%	c #514B55",
"d%	c #524A54",
"e%	c #4B434C",
"f%	c #48454E",
"g%	c #453F48",
"h%	c #524956",
"i%	c #51495A",
"j%	c #463F4A",
"k%	c #4C4352",
"l%	c #4C424E",
"m%	c #342D31",
"n%	c #3D373F",
"o%	c #4B434E",
"p%	c #423B3F",
"q%	c #4B454C",
"r%	c #443E42",
"s%	c #494148",
"t%	c #433C43",
"u%	c #524954",
"v%	c #514955",
"w%	c #504957",
"x%	c #413A43",
"y%	c #3F3842",
"z%	c #393238",
"A%	c #352F36",
"B%	c #504A54",
"C%	c #676372",
"D%	c #3E373B",
"E%	c #4B4248",
"F%	c #473F45",
"G%	c #3E3840",
"H%	c #403A3F",
"I%	c #49424C",
"J%	c #46404C",
"K%	c #403A44",
"L%	c #453C47",
"M%	c #4C4754",
"N%	c #524D58",
"O%	c #4A464F",
"P%	c #322D30",
"Q%	c #3B3538",
"R%	c #393438",
"S%	c #352F34",
"T%	c #3B353B",
"U%	c #453D45",
"V%	c #3E393E",
"W%	c #463E48",
"X%	c #48414D",
"Y%	c #4B4356",
"Z%	c #48414F",
"`%	c #322D32",
" &	c #342D34",
".&	c #363037",
"+&	c #3A343C",
"@&	c #362E35",
"#&	c #3E383E",
"$&	c #423C44",
"%&	c #403943",
"&&	c #433B45",
"*&	c #4E4655",
"=&	c #564E59",
"-&	c #5D5962",
";&	c #2C292F",
">&	c #2E2B31",
",&	c #3B3539",
"'&	c #3B363E",
")&	c #48424A",
"!&	c #423E44",
"                        . + @ # $ %                             ",
"                  & * = - ; > , ' ) ! ~ { ]                     ",
"                ^ / ( _ : < [ } | 1 2 3 4 5 6                   ",
"            7 8 9 0 a b c d e f g h i j k l m                   ",
"          n o p q r s t u v w x y z A B C D E                   ",
"        F G H I J K L M N O P Q R S T U V W X Y Z               ",
"      `  ...+.@.#.$.%.&.*.=.-.;.>.,.'.).!.~.{.].^./.            ",
"      (._.:.<.[.}.|.1.2.3.4.5.6.7.8.9.0.a.b.c.d.e.f.g.          ",
"    h.i.j.k.l.m.n.o.p.q.r.4.s.t.u.v.w.x.y.z.A.B.C.D.E.          ",
"    F.G.H.I.J.K.L.M.N.O.P.Q.R.S.T.U.V.W.R X.Y.Z.`. +.+          ",
"  ++@+#+$+%+&+*+=+=+-+;+>+,+'+)+!+~+{+]+^+/+(+_+:+<+[+          ",
"  }+|+1+2+3+4+5+6+7+s.8+9+,+0+a+b+c+d+e+f+g+h+i+j+k+l+m+n+      ",
"o+p+q+r+s+t+u+v+w+x+y+z+A+B+C+D+E+F+G+H+I+J+K+L+M+N+O+P+Q+      ",
"R+S+T+l.U+V+W+X+Y+Z+`+ @.@+@@@#@$@%@&@*@=@-@;@>@,@'@)@!@~@{@    ",
"]@^@/@(@_@:@<@[@}@|@1@2@3@4@5@6@7@8@9@0@a@b@c@d@e@f@g@h@i@j@k@l@",
"m@1+n@o@p@q@r@s@t@u@v@w@x@y@z@A@B@C@D@E@F@G@H@I@J@K@L@M@N@O@P@Q@",
"R@S@T@U@U@V@W@X@Y@Z@`@ #.#+#@###$#%#&#*#=#-#;#>#,#'#)#!#~#{#]#^#",
"/#(#_#:#<#[#}#|#1#2#3#4#5#+#6#7#8#9#0#a#b#c#d#e#f#g#h#i#j#x.k#l#",
"  m#s@n#o#p#q#@.r#s#t#u#v#m#v#w#x#y#z#A#B#C#D#E#F#G#H#I#J#K#L#M#",
"    N#O#P#Q#R#S#T#U#V#W#X#Y#Z#`# $.$+$@$#$$$%$&$*$=$-$;$        ",
"    >$,$'$)$!$!$~${$]$^$/$($_$y#:$<$[$}$|$1$2$3$4$5$6$7$        ",
"  8$9$0$a$b$c$d$a+e$f$g$h$i$j$k$l$m$n$o$p$q$r$s$t$              ",
"    u$v$w$2#x$y$  z$A$B$C$D$E$F$G$H$I$J$K$L$M$N$O$P$Q$          ",
"        R$S$6#T$    U$V$W$X$D$Y$Z$`$ %.%+%@%#%$%%%&%            ",
"          *%=%-%        >$;%>%,%'%)%!%~%{%x#]%^%/%              ",
"      H     (%_%!$  :%<%[%}%|%1%2%3%4%5%6%7%8%                  ",
"        9%0%a%b%c%]$d%e%=$f%g%h%i%j%k%l%m%n%o%                  ",
"          p%q#6#q%r%s%p%t%u%v%d%w%x%y%z%A%B%C%                  ",
"            D%E%F%G%r%H%Q$o%o%I%J%K%L%M%N%O%                    ",
"                P%Q%R%S%A%T%U%V%W%X%j%Y%Z%                      ",
"                    `% &.&+&@&#&$&%&&&*&=&-&                    ",
"                        ;&>&S%,&B@'&)&!&                        "};
