/* XPM */
static char * grogu_xpm[] = {
"32 32 277 2",
"  	c None",
". 	c #6C6B6C",
"+ 	c #A4A3A1",
"@ 	c #F1F3EC",
"# 	c #F2F4ED",
"$ 	c #F4F5F2",
"% 	c #949393",
"& 	c #3B3A3A",
"* 	c #4C4B4B",
"= 	c #E8EADF",
"- 	c #D1DFBC",
"; 	c #C5D8AB",
"> 	c #C3D7AB",
", 	c #C4D8AF",
"' 	c #DAE2CE",
") 	c #DADBD9",
"! 	c #333232",
"~ 	c #3B3B3B",
"{ 	c #3A3837",
"] 	c #3B3836",
"^ 	c #B5B1AC",
"/ 	c #B0A89B",
"( 	c #B0ADA7",
"_ 	c #AEAAA6",
": 	c #AEAEA5",
"< 	c #EAECE0",
"[ 	c #ECEAD3",
"} 	c #CFDFB1",
"| 	c #C6D7AD",
"1 	c #CEDBB0",
"2 	c #CCD9AE",
"3 	c #C4D7AB",
"4 	c #BED6A8",
"5 	c #C5D6B6",
"6 	c #DEE6D5",
"7 	c #E9EDE3",
"8 	c #F2F5EC",
"9 	c #F0EDE0",
"0 	c #F6D9C4",
"a 	c #F9E8DE",
"b 	c #E9E2DC",
"c 	c #EFA284",
"d 	c #E5B58D",
"e 	c #CEC499",
"f 	c #BECEA1",
"g 	c #BCD4A4",
"h 	c #C9D8A6",
"i 	c #BCD2A4",
"j 	c #C5D9A9",
"k 	c #CFDFAF",
"l 	c #CEDEAE",
"m 	c #C1D5A7",
"n 	c #B4CCA0",
"o 	c #B6D0A2",
"p 	c #B3CC9F",
"q 	c #B5C097",
"r 	c #CEA586",
"s 	c #F1A47D",
"t 	c #FDB687",
"u 	c #9B8579",
"v 	c #505050",
"w 	c #F1D9CD",
"x 	c #FDBC90",
"y 	c #F4B08D",
"z 	c #CF8777",
"A 	c #947E6D",
"B 	c #B5C69C",
"C 	c #909C82",
"D 	c #828C72",
"E 	c #C3D6A8",
"F 	c #C4D9A9",
"G 	c #A0AB92",
"H 	c #7A7F73",
"I 	c #ACC499",
"J 	c #8D8A72",
"K 	c #B86966",
"L 	c #EDA98C",
"M 	c #FCBD91",
"N 	c #F2C8AE",
"O 	c #52504F",
"P 	c #383231",
"Q 	c #F7D4C2",
"R 	c #F9BB95",
"S 	c #F3B295",
"T 	c #BC6C66",
"U 	c #A9B28D",
"V 	c #595656",
"W 	c #414437",
"X 	c #C1CEA2",
"Y 	c #D0DDB2",
"Z 	c #585845",
"` 	c #000000",
" .	c #868C6E",
"..	c #A16D65",
"+.	c #D89281",
"@.	c #EEAC8F",
"#.	c #F4C4AB",
"$.	c #C8C3C2",
"%.	c #C1BFBE",
"&.	c #EAD4C8",
"*.	c #F2C19A",
"=.	c #F0B790",
"-.	c #CBB393",
";.	c #826454",
">.	c #918470",
",.	c #D4D4AB",
"'.	c #D7CEA8",
").	c #B6B295",
"!.	c #8E7363",
"~.	c #BBA688",
"{.	c #A96D63",
"].	c #D99C88",
"^.	c #E4C1B5",
"/.	c #BBB8B6",
"(.	c #434343",
"_.	c #E3E4E5",
":.	c #939091",
"<.	c #745F4E",
"[.	c #DAB497",
"}.	c #DDCAA5",
"|.	c #C9D3A7",
"1.	c #C3D1A5",
"2.	c #C9C19C",
"3.	c #D0AB91",
"4.	c #9C816E",
"5.	c #43373A",
"6.	c #B8B9BA",
"7.	c #B5B5B6",
"8.	c #C4C3C0",
"9.	c #8E7369",
"0.	c #816961",
"a.	c #7F665E",
"b.	c #746760",
"c.	c #74746C",
"d.	c #948074",
"e.	c #8A746B",
"f.	c #765E58",
"g.	c #886E68",
"h.	c #5F4C4B",
"i.	c #9A9999",
"j.	c #CECDCC",
"k.	c #A3928A",
"l.	c #816963",
"m.	c #846C66",
"n.	c #6E5A57",
"o.	c #745E5A",
"p.	c #8C736C",
"q.	c #88706A",
"r.	c #826B66",
"s.	c #635150",
"t.	c #35292E",
"u.	c #BBBABA",
"v.	c #7D7D7D",
"w.	c #999595",
"x.	c #534344",
"y.	c #514143",
"z.	c #524243",
"A.	c #574747",
"B.	c #695655",
"C.	c #715D5A",
"D.	c #655352",
"E.	c #786460",
"F.	c #918F8F",
"G.	c #3E3E3E",
"H.	c #CDCDCD",
"I.	c #A69A96",
"J.	c #725D5B",
"K.	c #715D5B",
"L.	c #6D5A57",
"M.	c #574848",
"N.	c #5A4B4C",
"O.	c #584747",
"P.	c #725E5C",
"Q.	c #564748",
"R.	c #695756",
"S.	c #908B8C",
"T.	c #5E5D5D",
"U.	c #B6B3B1",
"V.	c #886C65",
"W.	c #6D5958",
"X.	c #6C5958",
"Y.	c #685555",
"Z.	c #504143",
"`.	c #373037",
" +	c #6B5757",
".+	c #6B5858",
"++	c #645252",
"@+	c #6D6869",
"#+	c #3F3D3D",
"$+	c #676767",
"%+	c #B8AFAB",
"&+	c #624E4D",
"*+	c #5F4E50",
"=+	c #5D4C4E",
"-+	c #3E3337",
";+	c #3C3133",
">+	c #5E4C4F",
",+	c #604E50",
"'+	c #5E4D4F",
")+	c #534548",
"!+	c #3A373A",
"~+	c #DEDADB",
"{+	c #5E5E5E",
"]+	c #958F8F",
"^+	c #4B3D3F",
"/+	c #514246",
"(+	c #534448",
"_+	c #524448",
":+	c #3C3237",
"<+	c #433638",
"[+	c #564649",
"}+	c #534549",
"|+	c #504347",
"1+	c #493C41",
"2+	c #140A15",
"3+	c #CDC8C9",
"4+	c #565555",
"5+	c #9A9899",
"6+	c #362B2D",
"7+	c #483B40",
"8+	c #42363C",
"9+	c #463A3F",
"0+	c #40353A",
"a+	c #382C2F",
"b+	c #4B3D42",
"c+	c #473A40",
"d+	c #44383E",
"e+	c #392F34",
"f+	c #0E060F",
"g+	c #B3AEB0",
"h+	c #9F9C9C",
"i+	c #261D21",
"j+	c #3C3136",
"k+	c #3A3036",
"l+	c #282025",
"m+	c #3D3238",
"n+	c #3B3036",
"o+	c #382E34",
"p+	c #282226",
"q+	c #010006",
"r+	c #CAC4C6",
"s+	c #4D4B4B",
"t+	c #2C2329",
"u+	c #261E24",
"v+	c #332A31",
"w+	c #332A30",
"x+	c #2F272D",
"y+	c #1E181E",
"z+	c #30282E",
"A+	c #211A20",
"B+	c #141117",
"C+	c #383438",
"D+	c #D9D1D5",
"E+	c #ACA7A8",
"F+	c #7B7779",
"G+	c #4F4C4F",
"H+	c #3E3C41",
"I+	c #3B383B",
"J+	c #252226",
"K+	c #6E6C6F",
"L+	c #444143",
"M+	c #535053",
"N+	c #868487",
"O+	c #605C60",
"P+	c #9C989D",
"Q+	c #5C585B",
"R+	c #8B878A",
"S+	c #757275",
"T+	c #D9D2D7",
"U+	c #CFCAD0",
"V+	c #CBC5CB",
"W+	c #777476",
"X+	c #C0BBC2",
"Y+	c #AEA9AE",
"Z+	c #898489",
"`+	c #8C878C",
" @	c #726E73",
"                                                                ",
"                                                                ",
"                                                                ",
"                                                                ",
"                                                                ",
"                          . + @ # $ %                           ",
"                      & * = - ; > , ' ) ! ~ & ~ { ]             ",
"            ^ / ( _ : < [ } | 1 2 3 4 5 6 7 8 9 0 a             ",
"            b c d e f g h i j k l m n o p q r s t u             ",
"            v w x y z A B C D E F G H I J K L M N O             ",
"              P Q R S T U V W X Y Z `  ...+.@.#.$.              ",
"                %.&.*.=.-.;.>.,.'.).!.~.{.].^./.                ",
"                  (._.:.<.[.}.|.1.2.3.4.5.6.7.                  ",
"                    8.9.0.a.b.c.d.e.f.g.h.i.                    ",
"                    j.k.l.m.n.o.p.q.r.s.t.u.                    ",
"                    v.w.x.y.z.A.B.C.D.E.A.F.G.                  ",
"                    H.I.J.K.L.M.N.O.P.Q.R.S.T.                  ",
"                    U.V.W.X.Y.Z.`. +.+ +++@+#+                  ",
"                  $+%+&+*+*+=+-+;+>+,+'+)+!+~+                  ",
"                  {+]+^+/+(+_+:+<+[+}+|+1+2+3+                  ",
"                  4+5+6+7+8+9+0+a+b+c+d+e+f+g+                  ",
"                    h+i+j+k+k+k+l+m+n+o+p+q+r+                  ",
"                  s+w.t+u+v+w+x+y+v+z+A+B+C+D+                  ",
"                    E+F+G+H+I+J+K+L+M+N+O+P+Q+                  ",
"                      R+S+T+U+V+W+X+Y+Z+`+ @                    ",
"                                                                ",
"                                                                ",
"                                                                ",
"                                                                ",
"                                                                ",
"                                                                ",
"                                                                "};
