/* XPM */
static char * grogu_xpm[] = {
"60 60 623 2",
"  	c None",
". 	c #ABCBA4",
"+ 	c #AACCA3",
"@ 	c #ABCDA5",
"# 	c #ACCDA5",
"$ 	c #AACCA1",
"% 	c #A6BE90",
"& 	c #8FB480",
"* 	c #85AC76",
"= 	c #8AB07A",
"- 	c #8EB37E",
"; 	c #94B885",
"> 	c #9DC091",
", 	c #A3C69A",
"' 	c #A7CAA1",
") 	c #A4C59C",
"! 	c #A2C59B",
"~ 	c #A2C79D",
"{ 	c #A3CA9F",
"] 	c #A1C89C",
"^ 	c #A2C89D",
"/ 	c #A1C99C",
"( 	c #A2C89B",
"_ 	c #A7C89E",
": 	c #99BA88",
"< 	c #83AB74",
"[ 	c #759D62",
"} 	c #709352",
"| 	c #739451",
"1 	c #7D9E5D",
"2 	c #88AA6F",
"3 	c #92B783",
"4 	c #9BC193",
"5 	c #A0C49A",
"6 	c #9BC095",
"7 	c #9EC397",
"8 	c #A0C59A",
"9 	c #9FC69B",
"0 	c #9FC69A",
"a 	c #9FC699",
"b 	c #A1C69A",
"c 	c #A2C69B",
"d 	c #A3C69D",
"e 	c #A6C99F",
"f 	c #A4C89D",
"g 	c #A5C9A0",
"h 	c #A2C59A",
"i 	c #9DC191",
"j 	c #97BA86",
"k 	c #91B37A",
"l 	c #8DAD70",
"m 	c #8BA96C",
"n 	c #8BA76A",
"o 	c #A0B581",
"p 	c #8FB47C",
"q 	c #7EA76E",
"r 	c #749A60",
"s 	c #698D4E",
"t 	c #65833E",
"u 	c #6A843B",
"v 	c #799855",
"w 	c #8CB17A",
"x 	c #8EB682",
"y 	c #94B98A",
"z 	c #9BC093",
"A 	c #99BF90",
"B 	c #9BC293",
"C 	c #97BF8F",
"D 	c #92B988",
"E 	c #93BA89",
"F 	c #96BE8F",
"G 	c #9DC497",
"H 	c #9EC599",
"I 	c #A0C499",
"J 	c #98BE90",
"K 	c #99BF91",
"L 	c #98BF8F",
"M 	c #8FB37C",
"N 	c #88A768",
"O 	c #829D56",
"P 	c #7B9447",
"Q 	c #748D3E",
"R 	c #6C8739",
"S 	c #6A8A40",
"T 	c #849F60",
"U 	c #81A76C",
"V 	c #769E64",
"W 	c #71975B",
"X 	c #6A8E4F",
"Y 	c #638240",
"Z 	c #66823B",
"` 	c #7B9C5B",
" .	c #86AC74",
"..	c #94B886",
"+.	c #8CB37D",
"@.	c #85AC74",
"#.	c #89B077",
"$.	c #8EB480",
"%.	c #86AE79",
"&.	c #84AC76",
"*.	c #8DB581",
"=.	c #8CB47E",
"-.	c #8FB681",
";.	c #99BE8D",
">.	c #95BA87",
",.	c #8DB37D",
"'.	c #8BAC70",
").	c #7C9347",
"!.	c #70852E",
"~.	c #697E29",
"{.	c #647E2D",
"].	c #65843A",
"^.	c #6C904C",
"/.	c #7FA162",
"(.	c #93AE77",
"_.	c #7CA165",
":.	c #739A5F",
"<.	c #709558",
"[.	c #6B8E4F",
"}.	c #658543",
"|.	c #6F8E4B",
"1.	c #8AAD74",
"2.	c #86A66F",
"3.	c #72905C",
"4.	c #779962",
"5.	c #7DA062",
"6.	c #83A86A",
"7.	c #81A971",
"8.	c #82AA73",
"9.	c #82A86C",
"0.	c #7BA060",
"a.	c #87AA70",
"b.	c #93B67F",
"c.	c #8AAC6F",
"d.	c #7C944C",
"e.	c #697D2C",
"f.	c #637D2D",
"g.	c #648135",
"h.	c #688940",
"i.	c #6D914D",
"j.	c #7D9F60",
"k.	c #93AC77",
"l.	c #7B9C60",
"m.	c #729658",
"n.	c #6E9253",
"o.	c #688A4A",
"p.	c #6D8947",
"q.	c #83A265",
"r.	c #6B7C53",
"s.	c #3C4026",
"t.	c #425032",
"u.	c #66804A",
"v.	c #7C9F5D",
"w.	c #7FA568",
"x.	c #80A669",
"y.	c #7A9C5A",
"z.	c #75965D",
"A.	c #749267",
"B.	c #74905F",
"C.	c #86A467",
"D.	c #8BA767",
"E.	c #6D843A",
"F.	c #647E32",
"G.	c #65833B",
"H.	c #688943",
"I.	c #6E914F",
"J.	c #80A061",
"K.	c #809C5D",
"L.	c #739554",
"M.	c #6E8F4E",
"N.	c #6E8C4C",
"O.	c #81A063",
"P.	c #647250",
"Q.	c #211B0B",
"R.	c #1A1503",
"S.	c #4C5831",
"T.	c #779554",
"U.	c #7B9E5C",
"V.	c #7B9D59",
"W.	c #6F8D4A",
"X.	c #4F5B36",
"Y.	c #2C3420",
"Z.	c #35371E",
"`.	c #667A46",
" +	c #849E59",
".+	c #648037",
"++	c #65843C",
"@+	c #698946",
"#+	c #6F904D",
"$+	c #859F61",
"%+	c #8AA062",
"&+	c #809959",
"*+	c #7A9454",
"=+	c #88A86D",
"-+	c #799366",
";+	c #485033",
">+	c #434A2F",
",+	c #637950",
"'+	c #799D62",
")+	c #7A9F60",
"!+	c #779A5B",
"~+	c #6E8C52",
"{+	c #46492A",
"]+	c #211500",
"^+	c #342E16",
"/+	c #718858",
"(+	c #7E9A55",
"_+	c #6F8946",
":+	c #728D4B",
"<+	c #7A9554",
"[+	c #8DA262",
"}+	c #8FA269",
"|+	c #87A871",
"1+	c #7A9966",
"2+	c #799866",
"3+	c #80A46D",
"4+	c #7FA66D",
"5+	c #80A56A",
"6+	c #7EA46C",
"7+	c #749265",
"8+	c #647B55",
"9+	c #6D855C",
"0+	c #8CA971",
"a+	c #96AA6E",
"b+	c #BFB18C",
"c+	c #837C4C",
"d+	c #7A9357",
"e+	c #7B9A5A",
"f+	c #7B9A57",
"g+	c #76924E",
"h+	c #75955A",
"i+	c #7B9D65",
"j+	c #7B9D63",
"k+	c #789A5A",
"l+	c #81A364",
"m+	c #81A567",
"n+	c #84A667",
"o+	c #94A966",
"p+	c #B6B17F",
"q+	c #D1C7A4",
"r+	c #D1C2A0",
"s+	c #B3A385",
"t+	c #78734A",
"u+	c #677537",
"v+	c #657531",
"w+	c #617330",
"x+	c #566C34",
"y+	c #405223",
"z+	c #475A2A",
"A+	c #5E7334",
"B+	c #73883F",
"C+	c #849948",
"D+	c #A2A264",
"E+	c #CABC95",
"F+	c #B2C298",
"G+	c #BFC09A",
"H+	c #94A870",
"I+	c #B6B58B",
"J+	c #CFBC9B",
"K+	c #D1BE9B",
"L+	c #C3B292",
"M+	c #958667",
"N+	c #776D4B",
"O+	c #5E5F2D",
"P+	c #5E692F",
"Q+	c #5A6931",
"R+	c #5D6832",
"S+	c #6A6E3A",
"T+	c #777745",
"U+	c #898A4E",
"V+	c #A09A5F",
"W+	c #BFAF86",
"X+	c #D1C29D",
"Y+	c #8FA362",
"Z+	c #A4B983",
"`+	c #9AB681",
" @	c #9CB284",
".@	c #7E9963",
"+@	c #B3AF87",
"@@	c #CEBD9B",
"#@	c #C3A67B",
"$@	c #D1BB92",
"%@	c #CFBD95",
"&@	c #C2B18F",
"*@	c #AFA385",
"=@	c #A79D7B",
"-@	c #ACA47E",
";@	c #B1A784",
">@	c #B7A989",
",@	c #BEAF8D",
"'@	c #C4B48E",
")@	c #CBBB95",
"!@	c #D1C09D",
"~@	c #D0BE94",
"{@	c #CAB48B",
"]@	c #CBB892",
"^@	c #A9AB78",
"/@	c #8A9E5A",
"(@	c #A1B382",
"_@	c #A7B57D",
":@	c #8FAC6E",
"<@	c #93B689",
"[@	c #8DA878",
"}@	c #C7BF9C",
"|@	c #D1BF9A",
"1@	c #B39061",
"2@	c #C8AB78",
"3@	c #CDB583",
"4@	c #CEB88B",
"5@	c #CEBA91",
"6@	c #CFBC96",
"7@	c #D1BD97",
"8@	c #D0BC93",
"9@	c #D0BA90",
"0@	c #CFB98C",
"a@	c #D1BB8E",
"b@	c #D3BF93",
"c@	c #D2C097",
"d@	c #CEBA8E",
"e@	c #C2A87B",
"f@	c #C6B186",
"g@	c #A0A870",
"h@	c #839C56",
"i@	c #88A060",
"j@	c #8EA059",
"k@	c #8EAB79",
"l@	c #A5AD7E",
"m@	c #D3C59F",
"n@	c #CBB281",
"o@	c #A57E49",
"p@	c #C1A063",
"q@	c #C9AE75",
"r@	c #CBB27E",
"s@	c #CCB586",
"t@	c #CCB68A",
"u@	c #CDB586",
"v@	c #CBB17C",
"w@	c #CBAF7A",
"x@	c #CCB27E",
"y@	c #CDB37D",
"z@	c #CFB883",
"A@	c #D0BB8C",
"B@	c #CFB888",
"C@	c #C3A674",
"D@	c #B3A06B",
"E@	c #8EA25F",
"F@	c #91A45F",
"G@	c #A4AE70",
"H@	c #A79F61",
"I@	c #A49F68",
"J@	c #C5B585",
"K@	c #CDB278",
"L@	c #BF9D5C",
"M@	c #99703B",
"N@	c #BD9B5C",
"O@	c #C8AC71",
"P@	c #CAB07A",
"Q@	c #C9AF79",
"R@	c #CAB27E",
"S@	c #CBB380",
"T@	c #CAB17D",
"U@	c #C9AF7A",
"V@	c #CAB07B",
"W@	c #CCB17C",
"X@	c #CFB784",
"Y@	c #D0BA89",
"Z@	c #CBB37E",
"`@	c #BB9858",
" #	c #AD9753",
".#	c #989A4C",
"+#	c #AEAE6E",
"@#	c #CBB57D",
"##	c #CBB06F",
"$#	c #C9A961",
"%#	c #C5A357",
"&#	c #B6904A",
"*#	c #976D35",
"=#	c #B18C4A",
"-#	c #C9AA67",
";#	c #CBB077",
">#	c #CBB381",
",#	c #CBB481",
"'#	c #CDB485",
")#	c #D0B98A",
"!#	c #D4C091",
"~#	c #C6A973",
"{#	c #B48B44",
"]#	c #BD9C54",
"^#	c #BEA866",
"/#	c #CCBC8A",
"(#	c #CBAD67",
"_#	c #C09A4A",
":#	c #B48A42",
"<#	c #A27635",
"[#	c #A98040",
"}#	c #BC9752",
"|#	c #C7A55F",
"1#	c #CBAC6D",
"2#	c #CCB179",
"3#	c #CDB27E",
"4#	c #CCB483",
"5#	c #CDB486",
"6#	c #CFB98E",
"7#	c #D1BA8F",
"8#	c #D1BA8A",
"9#	c #CBB17F",
"0#	c #C2A062",
"a#	c #C6A359",
"b#	c #D1B777",
"c#	c #CAAC6F",
"d#	c #BB9753",
"e#	c #B0893E",
"f#	c #B38E4E",
"g#	c #B3915C",
"h#	c #B49056",
"i#	c #B89456",
"j#	c #BE9B5B",
"k#	c #C5A569",
"l#	c #C8AB71",
"m#	c #CAAD74",
"n#	c #CBAF77",
"o#	c #C4A56A",
"p#	c #BB995E",
"q#	c #B7955F",
"r#	c #C0A265",
"s#	c #B8934F",
"t#	c #BA975A",
"u#	c #BA9B6B",
"v#	c #B39364",
"w#	c #AD8A56",
"x#	c #AA844D",
"y#	c #AA8246",
"z#	c #A88042",
"A#	c #A77E41",
"B#	c #B08847",
"C#	c #AE874F",
"D#	c #B59362",
"E#	c #BC9E6D",
"F#	c #BD9D66",
"G#	c #BC985D",
"H#	c #BE9D66",
"I#	c #BFA377",
"J#	c #BB9D73",
"K#	c #B49468",
"L#	c #AE8B5D",
"M#	c #A98452",
"N#	c #A57F4D",
"O#	c #A8824F",
"P#	c #B28C53",
"Q#	c #AE8A5A",
"R#	c #B99A6A",
"S#	c #BFA170",
"T#	c #BD9E69",
"U#	c #BD9B64",
"V#	c #C1A474",
"W#	c #C4AD84",
"X#	c #C1A881",
"Y#	c #BCA27C",
"Z#	c #B99B75",
"`#	c #B5966F",
" $	c #B39268",
".$	c #B99661",
"+$	c #B89561",
"@$	c #BEA174",
"#$	c #C0A577",
"$$	c #C8B389",
"%$	c #C3AB7D",
"&$	c #BB9C68",
"*$	c #BC9D6C",
"=$	c #C3A97B",
"-$	c #C7B089",
";$	c #C5AE88",
">$	c #C5AF8C",
",$	c #C4AD8A",
"'$	c #BE9E6E",
")$	c #BD9A62",
"!$	c #BB9C71",
"~$	c #BCA27D",
"{$	c #C2AA81",
"]$	c #C3AB7F",
"^$	c #C7B087",
"/$	c #C0A77A",
"($	c #B99B6F",
"_$	c #BDA176",
":$	c #C4AA7C",
"<$	c #C7AE84",
"[$	c #C5AD84",
"}$	c #C6AD86",
"|$	c #C5AB81",
"1$	c #C3A471",
"2$	c #BE9A60",
"3$	c #BC9D6F",
"4$	c #C1A783",
"5$	c #C4AD89",
"6$	c #C6B089",
"7$	c #C7AF88",
"8$	c #C8B28A",
"9$	c #C5AB78",
"0$	c #BB9F72",
"a$	c #C1A67D",
"b$	c #C5AA7B",
"c$	c #C5A875",
"d$	c #C4A670",
"e$	c #C4A46D",
"f$	c #C2A065",
"g$	c #BD9B61",
"h$	c #BD9F74",
"i$	c #C3AB87",
"j$	c #C7B08D",
"k$	c #C7B08B",
"l$	c #C7AF83",
"m$	c #C7AD7D",
"n$	c #C8AD7B",
"o$	c #CDB483",
"p$	c #C3A974",
"q$	c #BDA173",
"r$	c #C3A87F",
"s$	c #C3A778",
"t$	c #C1A16A",
"u$	c #BF9D62",
"v$	c #BE9E68",
"w$	c #C1A77E",
"x$	c #C8B18E",
"y$	c #C9B390",
"z$	c #C8AF82",
"A$	c #C8AA72",
"B$	c #C3A262",
"C$	c #C3A368",
"D$	c #CBB17E",
"E$	c #C0A571",
"F$	c #BDA276",
"G$	c #C4AB81",
"H$	c #C8B18B",
"I$	c #C5AC83",
"J$	c #C3AA80",
"K$	c #C2A980",
"L$	c #C4AC87",
"M$	c #C9B391",
"N$	c #CCB593",
"O$	c #C9B18C",
"P$	c #C6AD7F",
"Q$	c #C7A970",
"R$	c #C5A465",
"S$	c #C1A370",
"T$	c #C4AB7F",
"U$	c #CAB281",
"V$	c #C3A873",
"W$	c #BDA476",
"X$	c #C3AB80",
"Y$	c #C6AE84",
"Z$	c #C5AB7F",
"`$	c #C4AE86",
" %	c #C6B08D",
".%	c #C9B18B",
"+%	c #C4A46A",
"@%	c #C4A15D",
"#%	c #C1A36D",
"$%	c #C4AC86",
"%%	c #C8AE81",
"&%	c #C5AA78",
"*%	c #C1A675",
"=%	c #C4AA7B",
"-%	c #C3A878",
";%	c #C3A779",
">%	c #C4AA7D",
",%	c #C5AC82",
"'%	c #C6AC80",
")%	c #C5A672",
"!%	c #C29F5D",
"~%	c #C19C51",
"{%	c #C09D5E",
"]%	c #C1A477",
"^%	c #C5A777",
"/%	c #C3A265",
"(%	c #C5AA71",
"_%	c #C4A76E",
":%	c #C5A56D",
"<%	c #C6A772",
"[%	c #C3A572",
"}%	c #C3A46F",
"|%	c #C3A269",
"1%	c #C29E5D",
"2%	c #BF984E",
"3%	c #BC9547",
"4%	c #BD9855",
"5%	c #BF9F69",
"6%	c #C19F67",
"7%	c #BE9855",
"8%	c #BC9A5F",
"9%	c #C5AA76",
"0%	c #C5A769",
"a%	c #C29F5C",
"b%	c #C29E5B",
"c%	c #C19D5B",
"d%	c #C09C5A",
"e%	c #BF9A53",
"f%	c #BD9648",
"g%	c #BC9342",
"h%	c #BA9447",
"i%	c #BA9555",
"j%	c #BE9C5F",
"k%	c #BE9A5C",
"l%	c #B6914D",
"m%	c #B79254",
"n%	c #C0A16D",
"o%	c #C09E5C",
"p%	c #BC9446",
"q%	c #BB9241",
"r%	c #BA9241",
"s%	c #BA9142",
"t%	c #BA9042",
"u%	c #B99144",
"v%	c #B89046",
"w%	c #B9944E",
"x%	c #BC9857",
"y%	c #C09E5E",
"z%	c #BD9C62",
"A%	c #BB985D",
"B%	c #BA9556",
"C%	c #B89350",
"D%	c #BA9757",
"E%	c #BB995C",
"F%	c #BB9A62",
"                                                                                                                        ",
"                                                                                                                        ",
"                                                                                                                        ",
"                                                                                                                        ",
"                                                                                                                        ",
"                                                                                                                        ",
"                                                                                                                        ",
"                                                                                                                        ",
"                                                                                                                        ",
"                                                                                                                        ",
"                                                                                                                        ",
"                                                                                                                        ",
"                                                    . + @ # $                                                           ",
"                        % & * = - ; > , '       ) ! ~ { ] ^ / ( _                                                       ",
"                          : < [ } | 1 2 3 4 5 6 7 8 9 0 a a a a b c d e f g h i j k l m n o                             ",
"                            p q r s t u v w x y z A B C D E F G H I J K L M N O P Q R S T                               ",
"                              U V W X Y Z `  ...+.@.#.$.%.&.*.=.-.;.>.,.'.).!.~.{.].^./.                                ",
"                              (._.:.<.[.}.|.1.2.3.4.5.6.7.8.9.0._.a.b.c.d.e.f.g.h.i.j.                                  ",
"                                k.l.m.n.o.p.q.r.s.t.u.v.w.x.y.z.A.B.C.D.E.F.G.H.I.J.                                    ",
"                                    K.L.M.N.O.P.Q.R.S.T.U.V.W.X.Y.Z.`. +.+++@+#+$+                                      ",
"                                      %+&+*+=+-+;+>+,+'+)+!+~+{+]+^+/+(+_+:+<+[+                                        ",
"                                            }+|+1+2+3+4+5+_.6+7+8+9+0+a+                                                ",
"                                          b+c+d+e+f+g+h+i+j+k+l+m+n+o+p+                                                ",
"                                        q+r+s+t+u+v+w+x+y+z+A+B+).C+D+E+                                                ",
"                                  F+G+H+I+J+K+L+M+N+O+P+Q+R+S+T+U+V+W+X+      Y+                                        ",
"                                Z+`+ @.@+@@@#@$@%@&@*@=@-@;@>@,@'@)@!@~@{@]@^@/@(@                                      ",
"                                _@:@<@[@}@|@1@2@3@4@5@6@7@8@9@0@a@b@c@d@e@f@g@h@i@                                      ",
"                                  j@k@l@m@n@o@p@q@r@s@t@u@v@w@x@y@z@A@B@C@D@E@F@G@                                      ",
"                                  H@I@J@K@L@M@N@O@P@Q@R@S@T@U@V@W@X@Y@Z@`@ #.#+#                                        ",
"                                  @###$#%#&#*#=#-#;#r@>#>#>#,#S@'#)#!#~#{#]#^#/#                                        ",
"                                      (#_#:#<#[#}#|#1#2#3#4#5#6#7#8#9#  0#a#b#                                          ",
"                                        c#d#e#f#g#h#i#j#k#l#m#n#o#p#q#                                                  ",
"                                          r#s#t#u#v#w#x#y#z#A#B#C#D#E#                                                  ",
"                                          F#G#H#I#J#K#L#M#N#O#P#Q#R#S#                                                  ",
"                                          T#U#V#W#X#Y#Z#`# $.$+$ $@$#$$$                                                ",
"                                        %$&$*$=$-$;$>$,$X#'$)$!$~${$]$^$                                                ",
"                                        /$($_$:$<$[$}$|$1$2$3$4$5$6$7$8$                                                ",
"                                        9$0$a$b$c$d$e$f$g$h$i$j$k$l$m$n$o$                                              ",
"                                        p$q$r$<$s$t$u$v$w$x$y$k$z$A$B$C$D$                                              ",
"                                        E$F$G$H$I$J$K$L$M$N$O$P$Q$R$S$T$U$                                              ",
"                                        V$W$X$Y$Z$G$`$ %y$.%b$+%@%#%$%%%2#                                              ",
"                                        &%*%:$=%-%;%>%,%'%)%!%~%{%]%^%/%(%                                              ",
"                                        _%:%<%)%[%[%}%|%1%2%3%4%5%6%7%8%9%                                              ",
"                                        0%a%b%c%c%d%e%f%g%h%i%j%k%l%m%n%                                                ",
"                                          o%p%q%r%s%t%u%v%w%x%y%                                                        ",
"                                            z%A%B%C%D%E%F%                                                              ",
"                                                                                                                        ",
"                                                                                                                        ",
"                                                                                                                        ",
"                                                                                                                        ",
"                                                                                                                        ",
"                                                                                                                        ",
"                                                                                                                        ",
"                                                                                                                        ",
"                                                                                                                        ",
"                                                                                                                        ",
"                                                                                                                        ",
"                                                                                                                        ",
"                                                                                                                        ",
"                                                                                                                        "};
