/* XPM */
static char * vader_right_xpm[] = {
"32 32 431 2",
"  	c None",
". 	c #072C47",
"+ 	c #125F87",
"@ 	c #062849",
"# 	c #0C5C85",
"$ 	c #013050",
"% 	c #06203B",
"& 	c #09486A",
"* 	c #2F455A",
"= 	c #322428",
"- 	c #1B0D06",
"; 	c #1F0E26",
"> 	c #210E26",
", 	c #040C15",
"' 	c #2A1301",
") 	c #100C10",
"! 	c #25130B",
"~ 	c #260F00",
"{ 	c #620B27",
"] 	c #C1254A",
"^ 	c #BE455C",
"/ 	c #770824",
"( 	c #0F2B48",
"_ 	c #4E290A",
": 	c #754C00",
"< 	c #3E1D00",
"[ 	c #46311B",
"} 	c #3F2313",
"| 	c #3C1B00",
"1 	c #1C0F27",
"2 	c #820A2B",
"3 	c #DE4165",
"4 	c #F7B5C5",
"5 	c #F4A1B4",
"6 	c #A70D33",
"7 	c #051E3C",
"8 	c #010000",
"9 	c #533100",
"0 	c #3F1F00",
"a 	c #25130C",
"b 	c #022643",
"c 	c #310E26",
"d 	c #A10D33",
"e 	c #EA6180",
"f 	c #F8C9D5",
"g 	c #F3A8B7",
"h 	c #C32C4D",
"i 	c #570B26",
"j 	c #052848",
"k 	c #013C65",
"l 	c #003D65",
"m 	c #01233E",
"n 	c #07090E",
"o 	c #2C1812",
"p 	c #190A00",
"q 	c #4C0C26",
"r 	c #BB1941",
"s 	c #F1829B",
"t 	c #F8CFDA",
"u 	c #ED879B",
"v 	c #A9163A",
"w 	c #3A0D26",
"x 	c #052949",
"y 	c #00416D",
"z 	c #002A4A",
"A 	c #040C16",
"B 	c #0A0501",
"C 	c #1C0B00",
"D 	c #261002",
"E 	c #281004",
"F 	c #190D07",
"G 	c #0C0500",
"H 	c #050A13",
"I 	c #00203F",
"J 	c #032242",
"K 	c #6B0B28",
"L 	c #D12C54",
"M 	c #F6A1B5",
"N 	c #F7CDD7",
"O 	c #E2637D",
"P 	c #8C0C2E",
"Q 	c #230E27",
"R 	c #01375F",
"S 	c #002C4E",
"T 	c #01060E",
"U 	c #140800",
"V 	c #3E1700",
"W 	c #3C1800",
"X 	c #321300",
"Y 	c #0B0500",
"Z 	c #070401",
"` 	c #030B16",
" .	c #001D39",
"..	c #032547",
"+.	c #210F27",
"@.	c #8A0B2D",
"#.	c #E1496C",
"$.	c #F7BBCA",
"%.	c #F6BFCB",
"&.	c #D23E5E",
"*.	c #6D0B28",
"=.	c #003E68",
"-.	c #051629",
";.	c #190B00",
">.	c #110600",
",.	c #3D1B00",
"'.	c #542800",
").	c #6A3C00",
"!.	c #784700",
"~.	c #4B2200",
"{.	c #1D0A00",
"].	c #070503",
"^.	c #01172E",
"/.	c #022649",
"(.	c #380D26",
"_.	c #A71137",
":.	c #ED6886",
"<.	c #F8CDD8",
"[.	c #F2A3B3",
"}.	c #BE2045",
"|.	c #4E0C26",
"1.	c #033358",
"2.	c #002B4E",
"3.	c #09090F",
"4.	c #1A0B00",
"5.	c #0F0500",
"6.	c #0A0400",
"7.	c #1E161C",
"8.	c #165B7D",
"9.	c #1E6586",
"0.	c #316684",
"a.	c #09364E",
"b.	c #090401",
"c.	c #010914",
"d.	c #012343",
"e.	c #540C26",
"f.	c #C21F46",
"g.	c #F38AA1",
"h.	c #F8D3DC",
"i.	c #EB8195",
"j.	c #A40F34",
"k.	c #320D26",
"l.	c #003760",
"m.	c #001831",
"n.	c #0F0600",
"o.	c #1B0B00",
"p.	c #0D0500",
"q.	c #260D01",
"r.	c #3B191D",
"s.	c #4A1902",
"t.	c #9E4802",
"u.	c #250F14",
"v.	c #040200",
"w.	c #050B13",
"x.	c #0E2040",
"y.	c #731636",
"z.	c #D6355A",
"A.	c #F6A9BB",
"B.	c #F7C9D4",
"C.	c #DF5C76",
"D.	c #840B2C",
"E.	c #1D0F27",
"F.	c #062443",
"G.	c #002E53",
"H.	c #000C1A",
"I.	c #120700",
"J.	c #1C0C00",
"K.	c #0B0400",
"L.	c #0E0600",
"M.	c #1A0A00",
"N.	c #382F2F",
"O.	c #39393E",
"P.	c #481601",
"Q.	c #020100",
"R.	c #260609",
"S.	c #920D30",
"T.	c #E55173",
"U.	c #F7C0CE",
"V.	c #F5B3C1",
"W.	c #CC3959",
"X.	c #650B27",
"Y.	c #023B63",
"Z.	c #002242",
"`.	c #00040B",
" +	c #190D0A",
".+	c #020307",
"++	c #090B12",
"@+	c #251313",
"#+	c #633701",
"$+	c #724200",
"%+	c #451C01",
"&+	c #0D0A0E",
"*+	c #3D010B",
"=+	c #B01037",
"-+	c #EF738E",
";+	c #F8CED9",
">+	c #F098AA",
",+	c #B51F42",
"'+	c #470C26",
")+	c #023A62",
"!+	c #001931",
"~+	c #050403",
"{+	c #140900",
"]+	c #1A0B05",
"^+	c #0B0503",
"/+	c #020409",
"(+	c #00060F",
"_+	c #000B16",
":+	c #35201D",
"<+	c #251104",
"[+	c #044B33",
"}+	c #A42243",
"|+	c #F492A9",
"1+	c #E8758C",
"2+	c #9A0E32",
"3+	c #2D0E26",
"4+	c #013B63",
"5+	c #001429",
"6+	c #050300",
"7+	c #180B00",
"8+	c #1A0900",
"9+	c #130600",
"0+	c #512800",
"a+	c #6B4500",
"b+	c #1C0B02",
"c+	c #192332",
"d+	c #192631",
"e+	c #0A3338",
"f+	c #43556E",
"g+	c #C799A9",
"h+	c #DF5B79",
"i+	c #7B1537",
"j+	c #06294A",
"k+	c #003053",
"l+	c #00050E",
"m+	c #060300",
"n+	c #1E0C00",
"o+	c #0F0700",
"p+	c #190900",
"q+	c #030201",
"r+	c #180C03",
"s+	c #221400",
"t+	c #411B00",
"u+	c #7D4F00",
"v+	c #794D07",
"w+	c #161A26",
"x+	c #021523",
"y+	c #192F48",
"z+	c #221627",
"A+	c #052342",
"B+	c #062A4B",
"C+	c #002F51",
"D+	c #010102",
"E+	c #210E00",
"F+	c #170900",
"G+	c #02050B",
"H+	c #141829",
"I+	c #090504",
"J+	c #2D1200",
"K+	c #371900",
"L+	c #0C0400",
"M+	c #080402",
"N+	c #5D3F03",
"O+	c #3D1E03",
"P+	c #012342",
"Q+	c #180A00",
"R+	c #240F00",
"S+	c #090400",
"T+	c #0C0707",
"U+	c #001428",
"V+	c #030305",
"W+	c #361600",
"X+	c #3B1800",
"Y+	c #020203",
"Z+	c #060401",
"`+	c #110700",
" @	c #04080F",
".@	c #01203C",
"+@	c #002D4E",
"@@	c #030202",
"#@	c #0C080A",
"$@	c #001D38",
"%@	c #000E1F",
"&@	c #090402",
"*@	c #170901",
"=@	c #010F1D",
"-@	c #01050D",
";@	c #0A0500",
">@	c #170800",
",@	c #042141",
"'@	c #002944",
")@	c #2C1100",
"!@	c #0C090D",
"~@	c #002C4F",
"{@	c #00172D",
"]@	c #100604",
"^@	c #1A0A01",
"/@	c #000710",
"(@	c #070400",
"_@	c #032243",
":@	c #00253D",
"<@	c #2F1200",
"[@	c #0C0B11",
"}@	c #074D73",
"|@	c #01223A",
"1@	c #030304",
"2@	c #1F0C00",
"3@	c #04070E",
"4@	c #001325",
"5@	c #002649",
"6@	c #002E4F",
"7@	c #190902",
"8@	c #3C1600",
"9@	c #0C111C",
"0@	c #0A5276",
"a@	c #042940",
"b@	c #010305",
"c@	c #210B00",
"d@	c #0F0802",
"e@	c #03192A",
"f@	c #051D32",
"g@	c #1C0C02",
"h@	c #030200",
"i@	c #1B0A02",
"j@	c #3D1700",
"k@	c #100603",
"l@	c #0A1820",
"m@	c #02172A",
"n@	c #000914",
"o@	c #0D0400",
"p@	c #180A06",
"q@	c #002C4C",
"r@	c #1B0A01",
"s@	c #3F1800",
"t@	c #220C00",
"u@	c #624000",
"v@	c #301701",
"w@	c #040201",
"x@	c #120800",
"y@	c #120500",
"z@	c #2F1100",
"A@	c #1F0D00",
"B@	c #000712",
"C@	c #001F3D",
"D@	c #041F3E",
"E@	c #002B49",
"F@	c #1C0A01",
"G@	c #4D1C00",
"H@	c #351400",
"I@	c #110900",
"J@	c #180900",
"K@	c #0C0300",
"L@	c #0B0708",
"M@	c #180B01",
"N@	c #030100",
"O@	c #250D00",
"P@	c #000204",
"Q@	c #022547",
"R@	c #180801",
"S@	c #441900",
"T@	c #501D00",
"U@	c #361400",
"V@	c #281000",
"W@	c #251314",
"X@	c #150600",
"Y@	c #290E00",
"Z@	c #090604",
"`@	c #2D1100",
" #	c #200D00",
".#	c #000101",
"+#	c #022446",
"@#	c #331200",
"##	c #461A00",
"$#	c #260E00",
"%#	c #080301",
"&#	c #38190E",
"*#	c #070406",
"=#	c #401D0A",
"-#	c #0C0401",
";#	c #000810",
">#	c #130704",
",#	c #291000",
"'#	c #100600",
")#	c #000000",
"!#	c #00203E",
"~#	c #002844",
"{#	c #060301",
"]#	c #150800",
"^#	c #0E0500",
"/#	c #060B14",
"(#	c #042F48",
"_#	c #14384F",
":#	c #4F2503",
"<#	c #250F02",
"[#	c #3F1C02",
"}#	c #001E36",
"|#	c #09425E",
"1#	c #1D1823",
"2#	c #1F0B00",
"3#	c #050200",
"4#	c #000813",
"5#	c #071731",
"6#	c #081426",
"7#	c #0C090C",
"8#	c #0F0801",
"9#	c #0C0A10",
"0#	c #080B17",
"a#	c #131727",
"b#	c #422925",
"c#	c #242329",
"d#	c #4B250B",
"e#	c #301A1A",
"f#	c #3D1C02",
"g#	c #060404",
"h#	c #201517",
"i#	c #775231",
"j#	c #3F2111",
"k#	c #130C12",
"l#	c #081028",
"m#	c #081026",
"n#	c #090F25",
"o#	c #081027",
"p#	c #081129",
"q#	c #261C29",
"r#	c #724A17",
"s#	c #2C1718",
"t#	c #0D1025",
"u#	c #0B1027",
"v#	c #0C1025",
"w#	c #080F25",
"x#	c #2B2125",
"                                                                ",
"                    . + @                                       ",
"                      # $                                       ",
"                % &   * = -                             ; >     ",
"                  , ' ) ! ~                           { ] ^ /   ",
"              ( _ : < [ } |                       1 2 3 4 5 6   ",
"              7     8 9 0 a b                   c d e f g h i   ",
"        j k l m n     o p                     q r s t u v w     ",
"      x y z A B C D E F G H I J             K L M N O P Q       ",
"      R S T U U V W V X Y Z `  ...      +.@.#.$.%.&.*.          ",
"      =.-.Y ;.>.,.'.).!.~.{.].^./.    (._.:.<.[.}.|.            ",
"    1.2.3.4.;.5.6.7.8.9.0.a.b.c.d.  e.f.g.h.i.j.k.              ",
"    l.m.n.o.;.5.p.q.r.s.t.u.v.w.x.y.z.A.B.C.D.E.                ",
"  F.G.H.I.J.p K.L.M.N.O.P.w.Q.R.S.T.U.V.W.X.                    ",
"  Y.Z.`.I.J. +.+++@+#+$+%+&+*+=+-+;+>+,+'+                      ",
"  )+!+~+{+J.]+^+/+(+_+:+<+[+}+|+h.1+2+3+                        ",
"  4+5+6+;.7+8+9+0+a+b+c+d+e+f+g+h+i+                            ",
"j+k+l+m+n+o+p+q+r+s+t+u+v+w+x+y+z+A+                            ",
"B+C+D+{+E+Y F+G+H+I+J+K+L+M+N+O+&+P+                            ",
"B+C+D+Q+R+S+Q+T+U+V+W+X+Y+Z+Y `+ @.@                            ",
"B++@@@o.~ S+Q+#@$@%@&@*@=@-@;@>@`+  ,@                          ",
"B+'@B )@)@S+Q+!@~@{@]@^@H./@(@o.`+  _@                          ",
"B+:@K.<@)@S+Q+[@}@|@1@2@3@4@@@o.n.  5@                          ",
"B+6@7@8@)@S+Q+9@0@a@b@c@d@e@f@g@h@  5@                          ",
"B+C+i@j@)@S+Q+k@l@m@n@o@~ p@L+J.Q.  5@                          ",
"B+q@r@s@)@;@p t@u@v@w@Q.x@y@z@A@Q.B@C@D@                        ",
"B+E@F@G@H@4.;.o@I@J@K@L@M@N@O@A@Q.P@  Q@                        ",
"B+'@R@S@T@U@V@L+@@W@X@Y@G Z@`@ #Q..#  +#                        ",
"B+'@B @###j@$#6.%#&#*#=#-#;#>#,#'#)#n@!#D@                      ",
"B+~#{#]#9+^#/#(#_#:#<#[#3@}#|#1#2#3#4#                          ",
"5#6#7#8#9#0#a#b#c#d#e#f#g#h#i#j#k#                              ",
"l#l#m#n#o#p#q#r#s#t#u#v#w#t#x#                                  "};
