/* XPM */
static char * vader_7_t_xpm[] = {
"32 32 431 2",
"  	c None",
". 	c #062849",
"+ 	c #125F87",
"@ 	c #072C47",
"# 	c #013050",
"$ 	c #0C5C85",
"% 	c #210E26",
"& 	c #1F0E26",
"* 	c #1B0D06",
"= 	c #322428",
"- 	c #2F455A",
"; 	c #09486A",
"> 	c #06203B",
", 	c #770824",
"' 	c #BE455C",
") 	c #C1254A",
"! 	c #620B27",
"~ 	c #260F00",
"{ 	c #25130B",
"] 	c #100C10",
"^ 	c #2A1301",
"/ 	c #040C15",
"( 	c #A70D33",
"_ 	c #F4A1B4",
": 	c #F7B5C5",
"< 	c #DE4165",
"[ 	c #820A2B",
"} 	c #1C0F27",
"| 	c #3C1B00",
"1 	c #3F2313",
"2 	c #46311B",
"3 	c #3E1D00",
"4 	c #754C00",
"5 	c #4E290A",
"6 	c #0F2B48",
"7 	c #570B26",
"8 	c #C32C4D",
"9 	c #F3A8B7",
"0 	c #F8C9D5",
"a 	c #EA6180",
"b 	c #A10D33",
"c 	c #310E26",
"d 	c #022643",
"e 	c #25130C",
"f 	c #3F1F00",
"g 	c #533100",
"h 	c #010000",
"i 	c #051E3C",
"j 	c #3A0D26",
"k 	c #A9163A",
"l 	c #ED879B",
"m 	c #F8CFDA",
"n 	c #F1829B",
"o 	c #BB1941",
"p 	c #4C0C26",
"q 	c #190A00",
"r 	c #2C1812",
"s 	c #07090E",
"t 	c #01233E",
"u 	c #003D65",
"v 	c #013C65",
"w 	c #052848",
"x 	c #230E27",
"y 	c #8C0C2E",
"z 	c #E2637D",
"A 	c #F7CDD7",
"B 	c #F6A1B5",
"C 	c #D12C54",
"D 	c #6B0B28",
"E 	c #032242",
"F 	c #00203F",
"G 	c #050A13",
"H 	c #0C0500",
"I 	c #190D07",
"J 	c #281004",
"K 	c #261002",
"L 	c #1C0B00",
"M 	c #0A0501",
"N 	c #040C16",
"O 	c #002A4A",
"P 	c #00416D",
"Q 	c #052949",
"R 	c #6D0B28",
"S 	c #D23E5E",
"T 	c #F6BFCB",
"U 	c #F7BBCA",
"V 	c #E1496C",
"W 	c #8A0B2D",
"X 	c #210F27",
"Y 	c #032547",
"Z 	c #001D39",
"` 	c #030B16",
" .	c #070401",
"..	c #0B0500",
"+.	c #321300",
"@.	c #3E1700",
"#.	c #3C1800",
"$.	c #140800",
"%.	c #01060E",
"&.	c #002C4E",
"*.	c #01375F",
"=.	c #4E0C26",
"-.	c #BE2045",
";.	c #F2A3B3",
">.	c #F8CDD8",
",.	c #ED6886",
"'.	c #A71137",
").	c #380D26",
"!.	c #022649",
"~.	c #01172E",
"{.	c #070503",
"].	c #1D0A00",
"^.	c #4B2200",
"/.	c #784700",
"(.	c #6A3C00",
"_.	c #542800",
":.	c #3D1B00",
"<.	c #110600",
"[.	c #190B00",
"}.	c #051629",
"|.	c #003E68",
"1.	c #320D26",
"2.	c #A40F34",
"3.	c #EB8195",
"4.	c #F8D3DC",
"5.	c #F38AA1",
"6.	c #C21F46",
"7.	c #540C26",
"8.	c #012343",
"9.	c #010914",
"0.	c #090401",
"a.	c #09364E",
"b.	c #316684",
"c.	c #1E6586",
"d.	c #165B7D",
"e.	c #1E161C",
"f.	c #0A0400",
"g.	c #0F0500",
"h.	c #1A0B00",
"i.	c #09090F",
"j.	c #002B4E",
"k.	c #033358",
"l.	c #1D0F27",
"m.	c #840B2C",
"n.	c #DF5C76",
"o.	c #F7C9D4",
"p.	c #F6A9BB",
"q.	c #D6355A",
"r.	c #731636",
"s.	c #0E2040",
"t.	c #050B13",
"u.	c #040200",
"v.	c #250F14",
"w.	c #9E4802",
"x.	c #4A1902",
"y.	c #3B191D",
"z.	c #260D01",
"A.	c #0D0500",
"B.	c #1B0B00",
"C.	c #0F0600",
"D.	c #001831",
"E.	c #003760",
"F.	c #650B27",
"G.	c #CC3959",
"H.	c #F5B3C1",
"I.	c #F7C0CE",
"J.	c #E55173",
"K.	c #920D30",
"L.	c #260609",
"M.	c #020100",
"N.	c #481601",
"O.	c #39393E",
"P.	c #382F2F",
"Q.	c #1A0A00",
"R.	c #0E0600",
"S.	c #0B0400",
"T.	c #1C0C00",
"U.	c #120700",
"V.	c #000C1A",
"W.	c #002E53",
"X.	c #062443",
"Y.	c #470C26",
"Z.	c #B51F42",
"`.	c #F098AA",
" +	c #F8CED9",
".+	c #EF738E",
"++	c #B01037",
"@+	c #3D010B",
"#+	c #0D0A0E",
"$+	c #451C01",
"%+	c #724200",
"&+	c #633701",
"*+	c #251313",
"=+	c #090B12",
"-+	c #020307",
";+	c #190D0A",
">+	c #00040B",
",+	c #002242",
"'+	c #023B63",
")+	c #2D0E26",
"!+	c #9A0E32",
"~+	c #E8758C",
"{+	c #F492A9",
"]+	c #A42243",
"^+	c #044B33",
"/+	c #251104",
"(+	c #35201D",
"_+	c #000B16",
":+	c #00060F",
"<+	c #020409",
"[+	c #0B0503",
"}+	c #1A0B05",
"|+	c #140900",
"1+	c #050403",
"2+	c #001931",
"3+	c #023A62",
"4+	c #7B1537",
"5+	c #DF5B79",
"6+	c #C799A9",
"7+	c #43556E",
"8+	c #0A3338",
"9+	c #192631",
"0+	c #192332",
"a+	c #1C0B02",
"b+	c #6B4500",
"c+	c #512800",
"d+	c #130600",
"e+	c #1A0900",
"f+	c #180B00",
"g+	c #050300",
"h+	c #001429",
"i+	c #013B63",
"j+	c #052342",
"k+	c #221627",
"l+	c #192F48",
"m+	c #021523",
"n+	c #161A26",
"o+	c #794D07",
"p+	c #7D4F00",
"q+	c #411B00",
"r+	c #221400",
"s+	c #180C03",
"t+	c #030201",
"u+	c #190900",
"v+	c #0F0700",
"w+	c #1E0C00",
"x+	c #060300",
"y+	c #00050E",
"z+	c #003053",
"A+	c #06294A",
"B+	c #012342",
"C+	c #3D1E03",
"D+	c #5D3F03",
"E+	c #080402",
"F+	c #0C0400",
"G+	c #371900",
"H+	c #2D1200",
"I+	c #090504",
"J+	c #141829",
"K+	c #02050B",
"L+	c #170900",
"M+	c #210E00",
"N+	c #010102",
"O+	c #002F51",
"P+	c #062A4B",
"Q+	c #01203C",
"R+	c #04080F",
"S+	c #110700",
"T+	c #060401",
"U+	c #020203",
"V+	c #3B1800",
"W+	c #361600",
"X+	c #030305",
"Y+	c #001428",
"Z+	c #0C0707",
"`+	c #180A00",
" @	c #090400",
".@	c #240F00",
"+@	c #042141",
"@@	c #170800",
"#@	c #0A0500",
"$@	c #01050D",
"%@	c #010F1D",
"&@	c #170901",
"*@	c #090402",
"=@	c #000E1F",
"-@	c #001D38",
";@	c #0C080A",
">@	c #030202",
",@	c #002D4E",
"'@	c #032243",
")@	c #070400",
"!@	c #000710",
"~@	c #1A0A01",
"{@	c #100604",
"]@	c #00172D",
"^@	c #002C4F",
"/@	c #0C090D",
"(@	c #2C1100",
"_@	c #002944",
":@	c #002649",
"<@	c #001325",
"[@	c #04070E",
"}@	c #1F0C00",
"|@	c #030304",
"1@	c #01223A",
"2@	c #074D73",
"3@	c #0C0B11",
"4@	c #2F1200",
"5@	c #00253D",
"6@	c #030200",
"7@	c #1C0C02",
"8@	c #051D32",
"9@	c #03192A",
"0@	c #0F0802",
"a@	c #210B00",
"b@	c #010305",
"c@	c #042940",
"d@	c #0A5276",
"e@	c #0C111C",
"f@	c #3C1600",
"g@	c #190902",
"h@	c #002E4F",
"i@	c #180A06",
"j@	c #0D0400",
"k@	c #000914",
"l@	c #02172A",
"m@	c #0A1820",
"n@	c #100603",
"o@	c #3D1700",
"p@	c #1B0A02",
"q@	c #041F3E",
"r@	c #001F3D",
"s@	c #000712",
"t@	c #1F0D00",
"u@	c #2F1100",
"v@	c #120500",
"w@	c #120800",
"x@	c #040201",
"y@	c #301701",
"z@	c #624000",
"A@	c #220C00",
"B@	c #3F1800",
"C@	c #1B0A01",
"D@	c #002C4C",
"E@	c #022547",
"F@	c #000204",
"G@	c #250D00",
"H@	c #030100",
"I@	c #180B01",
"J@	c #0B0708",
"K@	c #0C0300",
"L@	c #180900",
"M@	c #110900",
"N@	c #351400",
"O@	c #4D1C00",
"P@	c #1C0A01",
"Q@	c #002B49",
"R@	c #022446",
"S@	c #000101",
"T@	c #200D00",
"U@	c #2D1100",
"V@	c #090604",
"W@	c #290E00",
"X@	c #150600",
"Y@	c #251314",
"Z@	c #281000",
"`@	c #361400",
" #	c #501D00",
".#	c #441900",
"+#	c #180801",
"@#	c #00203E",
"##	c #000000",
"$#	c #100600",
"%#	c #291000",
"&#	c #130704",
"*#	c #000810",
"=#	c #0C0401",
"-#	c #401D0A",
";#	c #070406",
">#	c #38190E",
",#	c #080301",
"'#	c #260E00",
")#	c #461A00",
"!#	c #331200",
"~#	c #000813",
"{#	c #050200",
"]#	c #1F0B00",
"^#	c #1D1823",
"/#	c #09425E",
"(#	c #001E36",
"_#	c #3F1C02",
":#	c #250F02",
"<#	c #4F2503",
"[#	c #14384F",
"}#	c #042F48",
"|#	c #060B14",
"1#	c #0E0500",
"2#	c #150800",
"3#	c #060301",
"4#	c #002844",
"5#	c #130C12",
"6#	c #3F2111",
"7#	c #775231",
"8#	c #201517",
"9#	c #060404",
"0#	c #3D1C02",
"a#	c #301A1A",
"b#	c #4B250B",
"c#	c #242329",
"d#	c #422925",
"e#	c #131727",
"f#	c #080B17",
"g#	c #0C0A10",
"h#	c #0F0801",
"i#	c #0C090C",
"j#	c #081426",
"k#	c #071731",
"l#	c #2B2125",
"m#	c #0D1025",
"n#	c #080F25",
"o#	c #0C1025",
"p#	c #0B1027",
"q#	c #2C1718",
"r#	c #724A17",
"s#	c #261C29",
"t#	c #081129",
"u#	c #081027",
"v#	c #090F25",
"w#	c #081026",
"x#	c #081028",
"                                                                ",
"                                      . + @                     ",
"                                      # $                       ",
"    % &                             * = -   ; >                 ",
"  , ' ) !                           ~ { ] ^ /                   ",
"  ( _ : < [ }                       | 1 2 3 4 5 6               ",
"  7 8 9 0 a b c                   d e f g h     i               ",
"    j k l m n o p                     q r     s t u v w         ",
"      x y z A B C D             E F G H I J K L M N O P Q       ",
"          R S T U V W X       Y Z `  ...+.@.#.@.$.$.%.&.*.      ",
"            =.-.;.>.,.'.).    !.~.{.].^./.(._.:.<.[...}.|.      ",
"              1.2.3.4.5.6.7.  8.9.0.a.b.c.d.e.f.g.[.h.i.j.k.    ",
"                l.m.n.o.p.q.r.s.t.u.v.w.x.y.z.A.g.[.B.C.D.E.    ",
"                    F.G.H.I.J.K.L.M.t.N.O.P.Q.R.S.q T.U.V.W.X.  ",
"                      Y.Z.`. +.+++@+#+$+%+&+*+=+-+;+T.U.>+,+'+  ",
"                        )+!+~+4.{+]+^+/+(+_+:+<+[+}+T.|+1+2+3+  ",
"                            4+5+6+7+8+9+0+a+b+c+d+e+f+[.g+h+i+  ",
"                            j+k+l+m+n+o+p+q+r+s+t+u+v+w+x+y+z+A+",
"                            B+#+C+D+E+F+G+H+I+J+K+L+..M+|+N+O+P+",
"                            Q+R+S+..T+U+V+W+X+Y+Z+`+ @.@`+N+O+P+",
"                          +@  S+@@#@$@%@&@*@=@-@;@`+ @~ B.>@,@P+",
"                          '@  S+B.)@!@V.~@{@]@^@/@`+ @(@(@M _@P+",
"                          :@  C.B.>@<@[@}@|@1@2@3@`+ @(@4@S.5@P+",
"                          :@  6@7@8@9@0@a@b@c@d@e@`+ @(@f@g@h@P+",
"                          :@  M.T.F+i@~ j@k@l@m@n@`+ @(@o@p@O+P+",
"                        q@r@s@M.t@u@v@w@M.x@y@z@A@q #@(@B@C@D@P+",
"                        E@  F@M.t@G@H@I@J@K@L@M@j@[.h.N@O@P@Q@P+",
"                        R@  S@M.T@U@V@H W@X@Y@>@F+Z@`@ #.#+#_@P+",
"                      q@@#k@##$#%#&#*#=#-#;#>#,#f.'#o@)#!#M _@P+",
"                          ~#{#]#^#/#(#[@_#:#<#[#}#|#1#d+2#3#4#P+",
"                              5#6#7#8#9#0#a#b#c#d#e#f#g#h#i#j#k#",
"                                  l#m#n#o#p#m#q#r#s#t#u#v#w#x#x#"};
