/* XPM */
static char * wall_xpm[] = {
"32 32 807 2",
"  	c #252833",
". 	c #3A3D43",
"+ 	c #575C60",
"@ 	c #575E60",
"# 	c #555B5E",
"$ 	c #555B60",
"% 	c #575D61",
"& 	c #585E63",
"* 	c #5A6065",
"= 	c #5C6266",
"- 	c #5B6368",
"; 	c #565C61",
"> 	c #565A5D",
", 	c #616568",
"' 	c #5D6164",
") 	c #464B4F",
"! 	c #5F656A",
"~ 	c #5E6367",
"{ 	c #5E6265",
"] 	c #5D6264",
"^ 	c #5C6062",
"/ 	c #5B6062",
"( 	c #5B5F63",
"_ 	c #676B6E",
": 	c #7F8286",
"< 	c #4D5054",
"[ 	c #292C33",
"} 	c #373A3F",
"| 	c #A0A4A8",
"1 	c #8E9396",
"2 	c #929A9C",
"3 	c #91989B",
"4 	c #90979A",
"5 	c #8F9699",
"6 	c #8E9698",
"7 	c #8E9598",
"8 	c #8D9597",
"9 	c #9CA5A9",
"0 	c #8A9295",
"a 	c #7C8182",
"b 	c #929798",
"c 	c #8C9193",
"d 	c #5F6466",
"e 	c #91999C",
"f 	c #949B9D",
"g 	c #969C9B",
"h 	c #989E9D",
"i 	c #999E9E",
"j 	c #979D9C",
"k 	c #969B9B",
"l 	c #959A9A",
"m 	c #979C9F",
"n 	c #818588",
"o 	c #5A5E60",
"p 	c #8B8F91",
"q 	c #5A5D60",
"r 	c #717476",
"s 	c #9DA1A3",
"t 	c #3E4344",
"u 	c #697173",
"v 	c #6C7476",
"w 	c #6B7374",
"x 	c #6B7375",
"y 	c #6A7273",
"z 	c #747D7F",
"A 	c #6E7577",
"B 	c #515656",
"C 	c #6E7371",
"D 	c #737877",
"E 	c #525758",
"F 	c #5B6466",
"G 	c #646D6E",
"H 	c #727B7B",
"I 	c #707878",
"J 	c #707979",
"K 	c #6F7878",
"L 	c #6F7778",
"M 	c #6F7779",
"N 	c #727A7B",
"O 	c #767C7C",
"P 	c #484C4C",
"Q 	c #6C7070",
"R 	c #75787A",
"S 	c #919495",
"T 	c #8F9292",
"U 	c #656B6C",
"V 	c #7B8386",
"W 	c #788082",
"X 	c #788283",
"Y 	c #788284",
"Z 	c #798385",
"` 	c #798384",
" .	c #778182",
"..	c #777F80",
"+.	c #6E7474",
"@.	c #A9AFAD",
"#.	c #B3B9B8",
"$.	c #767B7C",
"%.	c #646C6E",
"&.	c #6C7578",
"*.	c #80878C",
"=.	c #828A8F",
"-.	c #7F878C",
";.	c #7C8489",
">.	c #777E83",
",.	c #727A7F",
"'.	c #71797E",
").	c #707A7A",
"!.	c #78807F",
"~.	c #505554",
"{.	c #6A6D6E",
"].	c #494D4E",
"^.	c #888C8B",
"/.	c #6C7272",
"(.	c #767E81",
"_.	c #757D81",
":.	c #757E82",
"<.	c #767F82",
"[.	c #757F82",
"}.	c #768083",
"|.	c #757E81",
"1.	c #747E80",
"2.	c #757D7F",
"3.	c #6B7070",
"4.	c #B1B7B6",
"5.	c #B8BEBD",
"6.	c #74797A",
"7.	c #636C6E",
"8.	c #7A8387",
"9.	c #7E858C",
"0.	c #80878E",
"a.	c #858C93",
"b.	c #777E85",
"c.	c #737A81",
"d.	c #72797F",
"e.	c #6F797B",
"f.	c #7B8383",
"g.	c #686B6C",
"h.	c #484B4D",
"i.	c #848788",
"j.	c #868A8A",
"k.	c #6A7072",
"l.	c #767D82",
"m.	c #747C82",
"n.	c #757E83",
"o.	c #767F84",
"p.	c #747D82",
"q.	c #767F83",
"r.	c #737B7E",
"s.	c #676C6E",
"t.	c #A7ADAE",
"u.	c #B3B9BB",
"v.	c #727779",
"w.	c #636C6F",
"x.	c #7B8587",
"y.	c #80898C",
"z.	c #858E91",
"A.	c #778083",
"B.	c #6F787B",
"C.	c #6C7678",
"D.	c #7A8284",
"E.	c #4F5455",
"F.	c #676A6D",
"G.	c #47494D",
"H.	c #818485",
"I.	c #858989",
"J.	c #686D6F",
"K.	c #737B7F",
"L.	c #727A80",
"M.	c #778085",
"N.	c #757D82",
"O.	c #5D6466",
"P.	c #A0A7A9",
"Q.	c #AFB6B8",
"R.	c #747A7C",
"S.	c #60676C",
"T.	c #7C8589",
"U.	c #828B8E",
"V.	c #8B9598",
"W.	c #8C9598",
"X.	c #7B8487",
"Y.	c #70797C",
"Z.	c #636D70",
"`.	c #697478",
" +	c #778084",
".+	c #4D5154",
"++	c #686A6C",
"@+	c #484A4C",
"#+	c #7E8182",
"$+	c #828686",
"%+	c #686E6E",
"&+	c #71797C",
"*+	c #737A80",
"=+	c #777E84",
"-+	c #798086",
";+	c #787F85",
">+	c #767E83",
",+	c #70777A",
"'+	c #5B6364",
")+	c #A5ADAD",
"!+	c #AFB7B8",
"~+	c #777E7F",
"{+	c #5D6469",
"]+	c #788086",
"^+	c #818A8F",
"/+	c #8D969B",
"(+	c #868F94",
"_+	c #7B8489",
":+	c #656E72",
"<+	c #555F63",
"[+	c #657078",
"}+	c #4B4F52",
"|+	c #696A6B",
"1+	c #494A4B",
"2+	c #7A7E7E",
"3+	c #7F8382",
"4+	c #666B6B",
"5+	c #6F7579",
"6+	c #7A8187",
"7+	c #7B8288",
"8+	c #767D83",
"9+	c #70787B",
"0+	c #585F61",
"a+	c #889190",
"b+	c #8B9493",
"c+	c #686F71",
"d+	c #535A5E",
"e+	c #5D666B",
"f+	c #788286",
"g+	c #869094",
"h+	c #7E888D",
"i+	c #798488",
"j+	c #677175",
"k+	c #626C71",
"l+	c #6F797F",
"m+	c #4A4E51",
"n+	c #4A4B4C",
"o+	c #7A7D7E",
"p+	c #65696A",
"q+	c #6D7376",
"r+	c #727A7D",
"s+	c #798184",
"t+	c #7A8286",
"u+	c #7A8285",
"v+	c #777F82",
"w+	c #70777B",
"x+	c #666E71",
"y+	c #687073",
"z+	c #4F5758",
"A+	c #575F5E",
"B+	c #525A5A",
"C+	c #3E4648",
"D+	c #575F62",
"E+	c #576063",
"F+	c #7A8587",
"G+	c #6E797B",
"H+	c #758083",
"I+	c #768184",
"J+	c #778285",
"K+	c #717C7E",
"L+	c #707A7D",
"M+	c #787F82",
"N+	c #494D50",
"O+	c #67686A",
"P+	c #47484A",
"Q+	c #4D4F4F",
"R+	c #565857",
"S+	c #383C3C",
"T+	c #454A4D",
"U+	c #474C50",
"V+	c #454C4F",
"W+	c #464D50",
"X+	c #474E51",
"Y+	c #464D4F",
"Z+	c #3E4548",
"`+	c #333A3C",
" @	c #5C6365",
".@	c #858D8D",
"+@	c #9FA7A6",
"@@	c #959D9C",
"#@	c #586062",
"$@	c #343D40",
"%@	c #485153",
"&@	c #5F696B",
"*@	c #677173",
"=@	c #6A7476",
"-@	c #656F71",
";@	c #606A6C",
">@	c #60676B",
",@	c #63686C",
"'@	c #383B3D",
")@	c #65676A",
"!@	c #444548",
"~@	c #464847",
"{@	c #464845",
"]@	c #414444",
"^@	c #737779",
"/@	c #717579",
"(@	c #6F7377",
"_@	c #6D7275",
":@	c #6D7276",
"<@	c #6B6F73",
"[@	c #676C6F",
"}@	c #33383C",
"|@	c #3F4649",
"1@	c #ADB6B5",
"2@	c #CBD4D1",
"3@	c #BAC3C1",
"4@	c #798181",
"5@	c #5F676A",
"6@	c #424A4C",
"7@	c #353B3E",
"8@	c #5A6063",
"9@	c #545B5E",
"0@	c #535A5D",
"a@	c #51585B",
"b@	c #505659",
"c@	c #4F5456",
"d@	c #4E5356",
"e@	c #36393C",
"f@	c #4A4D50",
"g@	c #313437",
"h@	c #646565",
"i@	c #737572",
"j@	c #373A39",
"k@	c #404446",
"l@	c #3F4447",
"m@	c #404447",
"n@	c #404548",
"o@	c #414649",
"p@	c #2D3134",
"q@	c #515659",
"r@	c #42494B",
"s@	c #606869",
"t@	c #9BA4A3",
"u@	c #BDC6C3",
"v@	c #9DA6A4",
"w@	c #828B8A",
"x@	c #5A6264",
"y@	c #4A4F52",
"z@	c #272B2E",
"A@	c #272A2D",
"B@	c #2A2D30",
"C@	c #2C2F32",
"D@	c #2D3033",
"E@	c #2F3234",
"F@	c #34383A",
"G@	c #4E5255",
"H@	c #474A4D",
"I@	c #27292D",
"J@	c #373737",
"K@	c #727271",
"L@	c #575A59",
"M@	c #696D6F",
"N@	c #656A6E",
"O@	c #6A6E72",
"P@	c #6A6F72",
"Q@	c #666A6E",
"R@	c #5D6165",
"S@	c #2A2E31",
"T@	c #3E4346",
"U@	c #32383A",
"V@	c #474F4F",
"W@	c #737A7A",
"X@	c #929A99",
"Y@	c #555C5C",
"Z@	c #5A6162",
"`@	c #484D50",
" #	c #35383C",
".#	c #2B2E32",
"+#	c #505357",
"@#	c #5C5F63",
"##	c #606468",
"$#	c #65686C",
"%#	c #66696D",
"&#	c #484B4E",
"*#	c #212428",
"=#	c #2E2F33",
"-#	c #1C1C22",
";#	c #1E2020",
">#	c #323534",
",#	c #484C4F",
"'#	c #494D51",
")#	c #484B4F",
"!#	c #45484C",
"~#	c #424449",
"{#	c #3E4145",
"]#	c #393B40",
"^#	c #1B1E22",
"/#	c #373A3E",
"(#	c #23272A",
"_#	c #363B3E",
":#	c #6E7376",
"<#	c #5F6467",
"[#	c #343A3E",
"}#	c #2B3137",
"|#	c #252B31",
"1#	c #23282E",
"2#	c #30353A",
"3#	c #33383D",
"4#	c #33373C",
"5#	c #31363B",
"6#	c #2D3336",
"7#	c #282C30",
"8#	c #0F1116",
"9#	c #1C1C21",
"0#	c #1D1D21",
"a#	c #4E4F54",
"b#	c #4E5050",
"c#	c #141817",
"d#	c #1A1E22",
"e#	c #161A20",
"f#	c #181C20",
"g#	c #1B1F23",
"h#	c #191D21",
"i#	c #1D2126",
"j#	c #3A3D42",
"k#	c #3A3F42",
"l#	c #303538",
"m#	c #2F3437",
"n#	c #2F3336",
"o#	c #23282A",
"p#	c #22292F",
"q#	c #1F262C",
"r#	c #181E24",
"s#	c #1B2228",
"t#	c #1C2329",
"u#	c #1C2327",
"v#	c #1D2125",
"w#	c #101217",
"x#	c #323237",
"y#	c #4B4B50",
"z#	c #515459",
"A#	c #4E5051",
"B#	c #191D1D",
"C#	c #191E21",
"D#	c #1A1F26",
"E#	c #1D2227",
"F#	c #21262B",
"G#	c #24292E",
"H#	c #1F2429",
"I#	c #1E2328",
"J#	c #1F2327",
"K#	c #515558",
"L#	c #464B4E",
"M#	c #383D40",
"N#	c #363B3D",
"O#	c #3B4043",
"P#	c #4C5154",
"Q#	c #44494C",
"R#	c #272C31",
"S#	c #1C2228",
"T#	c #192026",
"U#	c #293036",
"V#	c #2D343A",
"W#	c #2C3339",
"X#	c #2E343A",
"Y#	c #2B3035",
"Z#	c #1B1D22",
"`#	c #38393C",
" $	c #343538",
".$	c #23262C",
"+$	c #161A1C",
"@$	c #191D1E",
"#$	c #353B3F",
"$$	c #232930",
"%$	c #30363B",
"&$	c #444A4F",
"*$	c #43494F",
"=$	c #272D33",
"-$	c #22282E",
";$	c #151B21",
">$	c #2A2F32",
",$	c #54595C",
"'$	c #62676B",
")$	c #62676A",
"!$	c #505458",
"~$	c #262A2E",
"{$	c #1B2126",
"]$	c #1A2329",
"^$	c #1F272E",
"/$	c #20282F",
"($	c #2B333A",
"_$	c #2B3239",
":$	c #262E35",
"<$	c #283036",
"[$	c #272E35",
"}$	c #282E33",
"|$	c #0E1014",
"1$	c #0E0F13",
"2$	c #1F232A",
"3$	c #454849",
"4$	c #2F3434",
"5$	c #4D5358",
"6$	c #3D454C",
"7$	c #586166",
"8$	c #555D63",
"9$	c #596267",
"0$	c #555E63",
"a$	c #363E43",
"b$	c #232C31",
"c$	c #1B2329",
"d$	c #181D21",
"e$	c #151A1E",
"f$	c #22262A",
"g$	c #282D31",
"h$	c #1E2327",
"i$	c #161B1F",
"j$	c #191E22",
"k$	c #1C2429",
"l$	c #1D262D",
"m$	c #242C33",
"n$	c #4E575E",
"o$	c #485158",
"p$	c #454D54",
"q$	c #384047",
"r$	c #2F373E",
"s$	c #252C30",
"t$	c #151A1D",
"u$	c #0C0F13",
"v$	c #35393F",
"w$	c #919698",
"x$	c #363B3C",
"y$	c #4C5358",
"z$	c #4F575F",
"A$	c #576065",
"B$	c #525B60",
"C$	c #384045",
"D$	c #252E33",
"E$	c #1D2327",
"F$	c #171C20",
"G$	c #1C2125",
"H$	c #1E252B",
"I$	c #232C33",
"J$	c #353D44",
"K$	c #4F585F",
"L$	c #515A61",
"M$	c #505960",
"N$	c #4B545B",
"O$	c #484F52",
"P$	c #4E5152",
"Q$	c #232628",
"R$	c #393D43",
"S$	c #989DA0",
"T$	c #2E3435",
"U$	c #515861",
"V$	c #5A636A",
"W$	c #586168",
"X$	c #576067",
"Y$	c #596268",
"Z$	c #545D63",
"`$	c #3A4248",
" %	c #2A3034",
".%	c #202529",
"+%	c #1A1F23",
"@%	c #21262A",
"#%	c #283035",
"$%	c #394249",
"%%	c #4A535A",
"&%	c #4B535B",
"*%	c #4D5558",
"=%	c #2D3133",
"-%	c #5C5F60",
";%	c #26292B",
">%	c #393C41",
",%	c #969A9C",
"'%	c #333738",
")%	c #4D5257",
"!%	c #545B62",
"~%	c #5A6368",
"{%	c #586167",
"]%	c #525A60",
"^%	c #444A50",
"/%	c #202528",
"(%	c #3A3E40",
"_%	c #424648",
":%	c #1A1F24",
"<%	c #2E353B",
"[%	c #424A50",
"}%	c #4F585D",
"|%	c #4E575D",
"1%	c #4E575C",
"2%	c #50595E",
"3%	c #4F595E",
"4%	c #495459",
"5%	c #4C5557",
"6%	c #2A2F31",
"7%	c #5B6161",
"8%	c #262A2C",
"9%	c #95999B",
"0%	c #343738",
"a%	c #4D5256",
"b%	c #545A62",
"c%	c #596269",
"d%	c #565F66",
"e%	c #596066",
"f%	c #52595E",
"g%	c #22272B",
"h%	c #45484B",
"i%	c #4F5355",
"j%	c #353C42",
"k%	c #485057",
"l%	c #525B62",
"m%	c #495358",
"n%	c #4C5558",
"o%	c #2A3031",
"p%	c #262A2B",
"q%	c #95989A",
"r%	c #535961",
"s%	c #5A636B",
"t%	c #586169",
"u%	c #585F65",
"v%	c #555A5E",
"w%	c #23272B",
"x%	c #46494C",
"y%	c #515457",
"z%	c #25292C",
"A%	c #393F44",
"B%	c #424A51",
"C%	c #4E585F",
"D%	c #4F5A60",
"E%	c #515C62",
"F%	c #525D63",
"G%	c #525D64",
"H%	c #515C63",
"I%	c #505B62",
"J%	c #4A5459",
"K%	c #292F30",
"L%	c #5B5F60",
"M%	c #949899",
"N%	c #333737",
"O%	c #4C5155",
"P%	c #545962",
"Q%	c #5B636C",
"R%	c #59626B",
"S%	c #59616A",
"T%	c #586069",
"U%	c #586068",
"V%	c #555C62",
"W%	c #53585C",
"X%	c #232629",
"Y%	c #46494B",
"Z%	c #525457",
"`%	c #3A4044",
" &	c #3A4249",
".&	c #49535B",
"+&	c #505A62",
"@&	c #515B63",
"#&	c #525C64",
"$&	c #515C64",
"%&	c #4E5860",
"&&	c #475056",
"*&	c #4A5255",
"=&	c #292D2F",
"-&	c #26292A",
";&	c #939799",
">&	c #323636",
",&	c #4F5458",
"'&	c #535860",
")&	c #596067",
"!&	c #5A6168",
"~&	c #585F66",
"{&	c #585D61",
"]&	c #52575A",
"^&	c #464749",
"/&	c #525355",
"(&	c #24272A",
"_&	c #3E4246",
":&	c #394146",
"<&	c #3E484E",
"[&	c #505A60",
"}&	c #4D575D",
"|&	c #434B51",
"1&	c #5B5E5F",
"2&	c #27292B",
"3&	c #36393E",
"4&	c #909495",
"5&	c #4F555C",
"6&	c #596065",
"7&	c #5A6166",
"8&	c #596165",
"9&	c #585F64",
"0&	c #1F2224",
"a&	c #454648",
"b&	c #535455",
"c&	c #292C2F",
"d&	c #393F43",
"e&	c #363F43",
"f&	c #474F54",
"g&	c #50585D",
"h&	c #515A5E",
"i&	c #51595D",
"j&	c #495156",
"k&	c #323A40",
"l&	c #3F4549",
"m&	c #232729",
"n&	c #5D5F61",
"o&	c #28292B",
"p&	c #8E9294",
"q&	c #2E3232",
"r&	c #363A3E",
"s&	c #383E42",
"t&	c #3F4749",
"u&	c #41494B",
"v&	c #434B4D",
"w&	c #434A4D",
"x&	c #42494C",
"y&	c #394143",
"z&	c #34383C",
"A&	c #34373A",
"B&	c #1E1F20",
"C&	c #464647",
"D&	c #525253",
"E&	c #282A2D",
"F&	c #343A3D",
"G&	c #2C3336",
"H&	c #2B3134",
"I&	c #2A3134",
"J&	c #2B3235",
"K&	c #293033",
"L&	c #272B2F",
"M&	c #15181A",
"N&	c #5C5D5F",
"O&	c #262729",
"P&	c #31353A",
"Q&	c #878B8E",
"R&	c #5B5C5E",
"S&	c #202123",
"T&	c #262829",
"U&	c #242829",
"V&	c #232829",
"W&	c #24292A",
"X&	c #24282A",
"Y&	c #2A2B2E",
"Z&	c #242426",
"`&	c #434445",
" *	c #252628",
".*	c #46484A",
"+*	c #383B3E",
"@*	c #373A3D",
"#*	c #383A3D",
"$*	c #393B3E",
"%*	c #383A3E",
"&*	c #090D0E",
"**	c #545757",
"=*	c #222425",
"-*	c #252A30",
";*	c #46484D",
">*	c #616265",
",*	c #393A3C",
"'*	c #303335",
")*	c #2E3234",
"!*	c #333437",
"~*	c #333436",
"{*	c #26272A",
"]*	c #393A3D",
"^*	c #0F1014",
"/*	c #17181B",
"(*	c #1B1C1F",
"_*	c #1A1B1F",
":*	c #1B1C20",
"<*	c #1A1A1E",
"[*	c #1A1B1E",
"}*	c #1A1D21",
"|*	c #212427",
"1*	c #151919",
"2*	c #1F2322",
"3*	c #0E1315",
"4*	c #23282F",
"5*	c #1B1E24",
"6*	c #282A2E",
"7*	c #353639",
"8*	c #363A3D",
"9*	c #363A3C",
"0*	c #373B3E",
"a*	c #393C3F",
"b*	c #3B3D40",
"c*	c #2F3235",
"d*	c #1C1F22",
"e*	c #0F1215",
"f*	c #222528",
"g*	c #333539",
"h*	c #34363A",
"i*	c #33363A",
"j*	c #33353A",
"k*	c #323539",
"l*	c #323439",
"m*	c #303338",
"n*	c #0D1213",
"o*	c #101519",
"p*	c #242831",
"q*	c #181C23",
"r*	c #11141B",
"s*	c #0E1116",
"t*	c #070A0F",
"u*	c #06090E",
"v*	c #05080D",
"w*	c #070B10",
"x*	c #090C11",
"y*	c #080B10",
"z*	c #080C10",
"A*	c #080B11",
"B*	c #070A11",
"C*	c #060910",
"D*	c #05080F",
"E*	c #161B1E",
"F*	c #20252A",
"  . + @ # $ $ $ % & * = - ; > , ' ) ! ~ { ' { ] ' ^ / ( _ : < [ ",
"} | 1 2 3 4 4 4 5 6 7 8 9 0 a b c d e f g h i h j k l m n o p q ",
"r s t u v w x w x w y u z A B C D E F G w H I J K L M N O P Q R ",
"S T U V W X Y Y Z ` Z Y  ...+.@.#.$.%.&.*.=.-.;.>.,.'.).!.~.{.].",
"S ^./.(._.:.<.[.}.[.[.|.1.2.3.4.5.6.7.8.9.0.a.0.b.c.d.e.f.B g.h.",
"i.j.k.l.m.n.o.n.n.p.o.o.q.r.s.t.u.v.w.x.y.y.z.V A.<.B.C.D.E.F.G.",
"H.I.J.K.L.n.o.o.M.o.M.M.N.r.O.P.Q.R.S.T.U.V.W.X.X.Y.Z.`. +.+++@+",
"#+$+%+&+*+=+-+-+-+-+;+>+-+,+'+)+!+~+{+]+^+/+(+_+M.:+<+[+ +}+|+1+",
"2+3+4+5+*+=+6+7+6+;+=+=+8+9+0+a+b+c+d+e+f+g+h+i+i+j+k+l+(.m+|+n+",
"o+3+p+q+r+(.s+t+u+(.v+w+x+y+z+A+B+C+D+E+F+G+H+I+J+K+L+M.M+N+O+P+",
"Q+R+S+T+U+V+W+X+W+V+Y+Z+`+ @.@+@@@..#@$@%@&@*@=@-@;@&@>@,@'@)@!@",
"~@{@]@^@/@(@_@:@<@[@~ }@|@#@1@2@3@4@5@6@7@8@9@0@0@a@b@c@d@e@f@g@",
"h@i@j@k@l@m@n@n@l@o@p@q@r@s@t@u@v@w@x@y@z@A@B@C@D@D@C@E@F@G@H@I@",
"J@K@L@M@N@[@O@P@Q@R@S@T@U@V@W@X@!.Y@Z@`@ #.#+#@###$#%#, { &#*#=#",
"-#;#>#,#'#)#!#~#{#]#^#/#(#_#n@:#<#<#l@[#}#|#1#2#3#4#5#6#7#8#9#0#",
"a#b#c#d#e#f#d#g#h#i#f#j#k#l#l#m#n#o#p@[#p#q#r#s#q#q#t#u#v#w#x#y#",
"z#A#B#C#D#E#F#G#H#H#I#J#K#L#M#N#O#P#Q#R#S#s#T#U#V#V#W#X#Y#Z#`# $",
".$+$@$#$$$%$&$*$*$=$-$;$>$,$'$,@)$!$~${$]$^$/$($_$:$<$[$}$g#|$1$",
"2$3$4$5$6$7$8$9$0$a$b$c$d$e$f$g$h$i$j$k$l$m$6$n$o$p$q$r$s$t$+$u$",
"v$w$x$y$z$A$A$A$9$B$C$D$E$v#F$F$f#j$G$H$I$J$K$n$L$K$M$N$O$A@P$Q$",
"R$S$T$y$U$V$W$X$Y$V$Z$`$ %.%+%d$g#f#@%#%$%%%n$n$n$K$n$&%*%=%-%;%",
">%,%'%)%!%~%9$7${%9$7$Z$]%^%/%(%_%:%<%[%}%|%1%}%2%2%3%4%5%6%7%8%",
">%9%0%a%b%V$c%W$W$W$W$d%e%f%g%h%i%E#j%k%l%M$l%L$L$L$M$m%n%o%7%p%",
">%q%0%a%r%s%c%t%t%W$X$X$u%v%w%x%y%z%A%B%C%D%E%F%G%H%I%J%5%K%L%;%",
">%M%N%O%P%Q%R%S%S%T%T%U%V%W%X%Y%Z%z%`% &.&+&@&#&$&+&%&&&*&=&L%-&",
">%;&>&,&'&)&!&!&)&~&~&~&{&]&(#^&/&(&_&:&<&[&[&[&[&[&}&|&W+8%1&2&",
"3&4&0%a%5&6&7&7&7&7&8&9&W%m+0&a&b&c&Q#d&e&f&g&h&i&h&j&k&l&m&n&o&",
"3&p&q&r&s&t&u&v&w&x&Z+y&z&A&B&C&D&E&G@F&G&6#H&I&J&6#K&s#L&M&N&O&",
"P&Q&R&S&T&U&U&U&V&W&W&X&;%Y&Z&`&1+ *.*+*@*#*$*+*+*%*%*/#A@&***=*",
"-*;*>*,*o&'*'*'*E@)*)*E@!*~*{*!*]*^*/*(*_*_*:*_*<*<*[*}*|*1*2*3*",
"4*5*6*7*E&+*+*+*8*9*@*0*a*b*c*d*X%e*f*g*h*i*j*k*l*l*k*m*k*0&n*o*",
"p*q*r*s*t*t*t*t*u*u*u*u*v*w*x*y*x*x*z*A*B*C*D*C*C*C*C*C*A*z*E*F*"};
